# Wavefront OBJ file
# Creator: Ultimate Unwrap3D Pro v3.19
# Website: http://www.unwrap3d.com
# Time: Sun Oct 25 01:15:41 2009
# num_vertices: 126
# num_vertex_normals: 126
# num_uvs: 492
# num_faces: 164
# num_groups: 1

mtllib half_barrell.mtl

v 9.409800 -0.000001 11.799604
v 13.597600 -0.000001 6.548305
v 9.475800 2.676193 11.882206
v 13.692901 2.676193 6.594104
v 3.358301 -0.000001 14.713804
v 3.381800 2.676193 14.816906
v -3.358299 -0.000001 14.713804
v -3.381800 2.676193 14.816906
v -9.409801 -0.000001 11.799604
v -9.475800 2.676193 11.882206
v -13.597599 -0.000001 6.548305
v -13.692898 2.676193 6.594104
v -15.092201 -0.000001 -0.000005
v -15.197899 2.676193 -0.000005
v 15.092200 -0.000001 0.000015
v 15.197901 2.676193 0.000015
v 9.026701 11.156624 11.319105
v 13.044001 11.156624 6.281704
v 8.444500 17.855423 10.589106
v 12.202701 17.855423 5.876504
v 14.477700 11.156624 0.000005
v 13.543900 17.855423 0.000005
v 3.221600 11.156624 14.114706
v 3.013800 17.855423 13.204405
v -3.221600 11.156624 14.114706
v -3.013800 17.855423 13.204405
v -9.026699 11.156624 11.319105
v -8.444500 17.855423 10.589106
v -13.043999 11.156624 6.281704
v -12.202599 17.855423 5.876504
v -14.477699 11.156624 -0.000005
v -13.543900 17.855423 -0.170945
v 10.273401 17.855423 0.000005
v 9.256001 17.855423 4.457465
v 13.543900 17.855423 0.000005
v 12.202701 17.855423 5.876504
v -9.256001 17.855423 4.457465
v -10.273399 17.855423 0.000015
v -12.202599 17.855423 5.876504
v -13.543900 17.855423 -0.170945
v -6.405399 17.855423 8.032104
v -8.444500 17.855423 10.589106
v -2.285999 17.855423 10.015905
v -3.013800 17.855423 13.204405
v 2.286001 17.855423 10.015905
v 3.013800 17.855423 13.204405
v 6.405401 17.855423 8.032104
v 8.444500 17.855423 10.589106
v 6.405401 16.927423 8.032104
v 9.256001 16.927423 4.457465
v 2.286001 16.927423 10.015905
v 10.273401 16.927423 -0.000005
v -2.285999 16.927423 10.015905
v -10.273399 16.927423 -0.271235
v -6.405399 16.927423 8.032104
v -9.256001 16.927423 4.457465
v 9.256001 16.927423 4.457465
v 9.256001 17.855423 4.457465
v 10.273401 16.927423 -0.000005
v 10.273401 17.855423 0.000005
v 6.405401 16.927423 8.032104
v 6.405401 17.855423 8.032104
v -10.273399 16.927423 -0.271235
v -10.273399 17.855423 0.000015
v -9.256001 16.927423 4.457465
v -9.256001 17.855423 4.457465
v -6.405399 16.927423 8.032104
v -6.405399 17.855423 8.032104
v -2.285999 16.927423 10.015905
v -2.285999 17.855423 10.015905
v 2.286001 16.927423 10.015905
v 2.286001 17.855423 10.015905
v 13.597600 -0.000001 -6.548265
v 9.409800 -0.000001 -11.799576
v 13.692901 2.676193 -6.594125
v 9.475800 2.676193 -11.882206
v 3.358301 -0.000001 -14.713795
v 3.381800 2.676193 -14.816906
v -3.358299 -0.000001 -14.713795
v -3.381800 2.676193 -14.816906
v -9.409801 -0.000001 -11.799576
v -9.475800 2.676193 -11.882206
v -13.597599 -0.000001 -6.548265
v -13.692898 2.676193 -6.594125
v 9.026701 11.156624 -11.319125
v 13.044001 11.156624 -6.281665
v 12.202701 17.855423 -5.876488
v 8.444500 17.855423 -10.589066
v 3.221600 11.156624 -14.114725
v 3.013800 17.855423 -13.204346
v -3.221600 11.156624 -14.114725
v -3.013800 17.855423 -13.204346
v -9.026699 11.156624 -11.319125
v -8.444500 17.855423 -10.589066
v -13.043999 11.156624 -6.281665
v -12.202599 17.855423 -5.876488
v 9.256001 17.855423 -4.457458
v 12.202701 17.855423 -5.876488
v -9.256001 17.855423 -4.457458
v -12.202599 17.855423 -5.876488
v -6.405399 17.855423 -8.032065
v -8.444500 17.855423 -10.589066
v -2.285999 17.855423 -10.015845
v -3.013800 17.855423 -13.204346
v 2.286001 17.855423 -10.015845
v 3.013800 17.855423 -13.204346
v 6.405401 17.855423 -8.032065
v 8.444500 17.855423 -10.589066
v 9.256001 16.927423 -4.457458
v 6.405401 16.927423 -8.032065
v 2.286001 16.927423 -10.015845
v -2.285999 16.927423 -10.015845
v -9.256001 16.927423 -4.457458
v -6.405399 16.927423 -8.032065
v 9.256001 17.855423 -4.457458
v 9.256001 16.927423 -4.457458
v 6.405401 17.855423 -8.032065
v 6.405401 16.927423 -8.032065
v -9.256001 17.855423 -4.457458
v -9.256001 16.927423 -4.457458
v -6.405399 17.855423 -8.032065
v -6.405399 16.927423 -8.032065
v -2.285999 17.855423 -10.015845
v -2.285999 16.927423 -10.015845
v 2.286001 17.855423 -10.015845
v 2.286001 16.927423 -10.015845
# num_vertices: 126

vn 0.385355 -0.728333 0.566597
vn 0.701767 -0.585236 0.406229
vn 0.680829 0.022557 0.732095
vn 0.931053 0.022555 0.364187
vn 0.101356 -0.728335 0.677684
vn 0.295763 0.022557 0.954995
vn -0.202714 -0.728333 0.654552
vn -0.147882 0.022554 0.988748
vn -0.466639 -0.728333 0.501776
vn -0.562238 0.022557 0.826668
vn -0.638142 -0.728332 0.249615
vn -0.865238 0.022553 0.500854
vn -0.931916 -0.355678 -0.070899
vn -0.996865 0.022557 0.075841
vn 0.931916 -0.355677 0.070898
vn 0.996865 0.022556 -0.075841
vn 0.558899 0.111067 0.821764
vn 0.860102 0.111068 0.497884
vn 0.674517 0.137667 0.725310
vn 0.922422 0.137673 0.360810
vn 0.990949 0.111069 0.075389
vn 0.987624 0.137672 -0.075137
vn 0.147005 0.111066 0.982880
vn 0.293024 0.137661 0.946143
vn -0.294010 0.111066 0.949328
vn -0.146512 0.137661 0.979583
vn -0.676790 0.111069 0.727750
vn -0.557031 0.137663 0.819003
vn -0.925794 0.112001 0.361055
vn -0.858203 0.137698 0.494496
vn -0.990866 0.111026 -0.076532
vn -0.987957 0.137537 0.070887
vn 0.000000 1.000000 0.000000
vn 0.000000 1.000000 0.000000
vn 0.000000 1.000000 0.000000
vn 0.000000 1.000000 0.000000
vn 0.000000 1.000000 0.000000
vn 0.000000 1.000000 0.000000
vn 0.000000 1.000000 0.000000
vn 0.000000 1.000000 0.000000
vn 0.000000 1.000000 0.000000
vn 0.000000 1.000000 0.000000
vn 0.000000 1.000000 0.000000
vn 0.000000 1.000000 0.000000
vn 0.000000 1.000000 0.000000
vn 0.000000 1.000000 0.000000
vn 0.000000 1.000000 0.000000
vn 0.000000 1.000000 0.000000
vn 0.000000 1.000000 0.000000
vn 0.000000 1.000000 0.000000
vn 0.000000 1.000000 0.000000
vn 0.000000 1.000000 0.000000
vn 0.000000 1.000000 0.000000
vn 0.000000 1.000000 0.000000
vn 0.000000 1.000000 0.000000
vn 0.000000 1.000000 0.000000
vn -0.865461 0.000000 -0.500975
vn -0.931289 0.000001 -0.364282
vn -0.997118 -0.000000 -0.075863
vn -0.997118 -0.000000 0.075863
vn -0.562386 0.000000 -0.826875
vn -0.681011 0.000000 -0.732273
vn 0.996405 -0.001208 0.084708
vn 0.997419 -0.001208 -0.071786
vn 0.932572 0.020943 -0.360376
vn 0.865461 0.000000 -0.500976
vn 0.681011 0.000000 -0.732273
vn 0.562386 0.000000 -0.826875
vn 0.295840 0.000000 -0.955238
vn 0.147920 0.000000 -0.988999
vn -0.147920 0.000000 -0.988999
vn -0.295840 0.000000 -0.955238
vn 0.638139 -0.728334 -0.249614
vn 0.466637 -0.728336 -0.501773
vn 0.865238 0.022550 -0.500854
vn 0.562238 0.022552 -0.826668
vn 0.202714 -0.728335 -0.654549
vn 0.147882 0.022551 -0.988748
vn -0.101357 -0.728336 -0.677682
vn -0.295763 0.022553 -0.954995
vn -0.385354 -0.728336 -0.566595
vn -0.680830 0.022552 -0.732095
vn -0.701764 -0.585240 -0.406227
vn -0.931053 0.022553 -0.364187
vn 0.676789 0.111069 -0.727750
vn 0.925527 0.111069 -0.362027
vn 0.857216 0.137671 -0.496213
vn 0.557025 0.137671 -0.819005
vn 0.294009 0.111070 -0.949327
vn 0.146511 0.137672 -0.979582
vn -0.147005 0.111070 -0.982880
vn -0.293023 0.137671 -0.946142
vn -0.558900 0.111070 -0.821763
vn -0.674519 0.137674 -0.725307
vn -0.860103 0.111074 -0.497882
vn -0.921905 0.135632 -0.362898
vn 0.000000 1.000000 0.000000
vn 0.000000 1.000000 0.000000
vn 0.000000 1.000000 0.000000
vn 0.000000 1.000000 0.000000
vn 0.000000 1.000000 0.000000
vn 0.000000 1.000000 0.000000
vn 0.000000 1.000000 0.000000
vn 0.000000 1.000000 0.000000
vn 0.000000 1.000000 0.000000
vn 0.000000 1.000000 0.000000
vn 0.000000 1.000000 0.000000
vn 0.000000 1.000000 0.000000
vn 0.000000 1.000000 0.000000
vn 0.000000 1.000000 0.000000
vn 0.000000 1.000000 0.000000
vn 0.000000 1.000000 0.000000
vn 0.000000 1.000000 0.000000
vn 0.000000 1.000000 0.000000
vn -0.865460 0.000000 0.500978
vn -0.931288 -0.000001 0.364283
vn -0.562382 0.000000 0.826877
vn -0.681008 0.000000 0.732276
vn 0.929289 -0.022123 0.368691
vn 0.863163 0.000000 0.504925
vn 0.681008 0.000000 0.732276
vn 0.562382 0.000000 0.826877
vn 0.295837 0.000000 0.955238
vn 0.147919 0.000000 0.989000
vn -0.147919 0.000000 0.989000
vn -0.295837 0.000000 0.955238
# num_vertex_normals: 126

vt 0.505372 0.515321
vt 0.583496 0.534599
vt 0.509629 0.613216
vt 0.583496 0.534599
vt 0.585250 0.631479
vt 0.509629 0.613216
vt 0.398003 0.506190
vt 0.505372 0.515321
vt 0.398436 0.603070
vt 0.505372 0.515321
vt 0.509629 0.613216
vt 0.398436 0.603070
vt 0.270270 0.508219
vt 0.398003 0.506190
vt 0.273896 0.605099
vt 0.398003 0.506190
vt 0.398436 0.603070
vt 0.273896 0.605099
vt 0.157830 0.513292
vt 0.270270 0.508219
vt 0.159659 0.613216
vt 0.270270 0.508219
vt 0.273896 0.605099
vt 0.159659 0.613216
vt 0.086808 0.530540
vt 0.157830 0.513292
vt 0.085054 0.622347
vt 0.157830 0.513292
vt 0.159659 0.613216
vt 0.085054 0.622347
vt 0.041024 0.550833
vt 0.086808 0.530540
vt 0.044151 0.637567
vt 0.086808 0.530540
vt 0.085054 0.622347
vt 0.044151 0.637567
vt 0.583496 0.534599
vt 0.626235 0.554891
vt 0.585250 0.631479
vt 0.626235 0.554891
vt 0.622094 0.654815
vt 0.585250 0.631479
vt 0.502375 0.745422
vt 0.509629 0.613216
vt 0.577360 0.756583
vt 0.509629 0.613216
vt 0.585250 0.631479
vt 0.577360 0.756583
vt 0.502375 0.745422
vt 0.577360 0.756583
vt 0.491655 0.871595
vt 0.577360 0.756583
vt 0.557810 0.880727
vt 0.491655 0.871595
vt 0.577360 0.756583
vt 0.585250 0.631479
vt 0.611877 0.772816
vt 0.585250 0.631479
vt 0.622094 0.654815
vt 0.611877 0.772816
vt 0.577360 0.756583
vt 0.611877 0.772816
vt 0.557810 0.880727
vt 0.611877 0.772816
vt 0.593668 0.894931
vt 0.557810 0.880727
vt 0.395485 0.740349
vt 0.398436 0.603070
vt 0.502375 0.745422
vt 0.398436 0.603070
vt 0.509629 0.613216
vt 0.502375 0.745422
vt 0.395485 0.740349
vt 0.502375 0.745422
vt 0.391659 0.866522
vt 0.502375 0.745422
vt 0.491655 0.871595
vt 0.391659 0.866522
vt 0.277861 0.739334
vt 0.273896 0.605099
vt 0.395485 0.740349
vt 0.273896 0.605099
vt 0.398436 0.603070
vt 0.395485 0.740349
vt 0.277861 0.739334
vt 0.395485 0.740349
vt 0.280673 0.866522
vt 0.395485 0.740349
vt 0.391659 0.866522
vt 0.280673 0.866522
vt 0.169958 0.748466
vt 0.159659 0.613216
vt 0.277861 0.739334
vt 0.159659 0.613216
vt 0.273896 0.605099
vt 0.277861 0.739334
vt 0.169958 0.748466
vt 0.277861 0.739334
vt 0.179663 0.871595
vt 0.277861 0.739334
vt 0.280673 0.866522
vt 0.179663 0.871595
vt 0.097002 0.761656
vt 0.085054 0.622347
vt 0.169958 0.748466
vt 0.085054 0.622347
vt 0.159659 0.613216
vt 0.169958 0.748466
vt 0.097002 0.761656
vt 0.169958 0.748466
vt 0.105391 0.886814
vt 0.169958 0.748466
vt 0.179663 0.871595
vt 0.105391 0.886814
vt 0.054369 0.779919
vt 0.044151 0.637567
vt 0.097002 0.761656
vt 0.044151 0.637567
vt 0.085054 0.622347
vt 0.097002 0.761656
vt 0.054369 0.779919
vt 0.097002 0.761656
vt 0.074607 0.904063
vt 0.097002 0.761656
vt 0.105391 0.886814
vt 0.074607 0.904063
vt 0.533885 0.883293
vt 0.454700 0.866685
vt 0.534436 0.842701
vt 0.454700 0.866685
vt 0.494076 0.826434
vt 0.534436 0.842701
vt 0.208817 0.863167
vt 0.126576 0.880331
vt 0.169918 0.829327
vt 0.126576 0.880331
vt 0.126369 0.837392
vt 0.169918 0.829327
vt 0.247282 0.864010
vt 0.208817 0.863167
vt 0.220628 0.825278
vt 0.208817 0.863167
vt 0.169918 0.829327
vt 0.220628 0.825278
vt 0.302330 0.862387
vt 0.247282 0.864010
vt 0.293200 0.827715
vt 0.247282 0.864010
vt 0.220628 0.825278
vt 0.293200 0.827715
vt 0.363058 0.863256
vt 0.302330 0.862387
vt 0.373261 0.828861
vt 0.302330 0.862387
vt 0.293200 0.827715
vt 0.373261 0.828861
vt 0.417438 0.866444
vt 0.363058 0.863256
vt 0.444953 0.828486
vt 0.363058 0.863256
vt 0.373261 0.828861
vt 0.444953 0.828486
vt 0.454700 0.866685
vt 0.417438 0.866444
vt 0.494076 0.826434
vt 0.417438 0.866444
vt 0.444953 0.828486
vt 0.494076 0.826434
vt 0.455562 0.578021
vt 0.512446 0.649351
vt 0.373363 0.538436
vt 0.512446 0.649351
vt 0.532747 0.738297
vt 0.373363 0.538436
vt 0.373363 0.538436
vt 0.532747 0.738297
vt 0.282130 0.538436
vt 0.532747 0.738297
vt 0.122749 0.738297
vt 0.282130 0.538436
vt 0.282130 0.538436
vt 0.122749 0.738297
vt 0.199932 0.578021
vt 0.122749 0.738297
vt 0.143049 0.649351
vt 0.199932 0.578021
vt 0.462764 0.754592
vt 0.462764 0.770636
vt 0.495865 0.754592
vt 0.462764 0.770636
vt 0.495865 0.770636
vt 0.495865 0.754592
vt 0.420734 0.754592
vt 0.420734 0.770636
vt 0.462764 0.754592
vt 0.420734 0.770636
vt 0.462764 0.770636
vt 0.462764 0.754592
vt 0.155866 0.754592
vt 0.155866 0.770636
vt 0.188967 0.754592
vt 0.155866 0.770636
vt 0.188967 0.770636
vt 0.188967 0.754592
vt 0.188967 0.754592
vt 0.188967 0.770636
vt 0.230997 0.754592
vt 0.188967 0.770636
vt 0.230997 0.770636
vt 0.230997 0.754592
vt 0.230997 0.754592
vt 0.230997 0.770636
vt 0.289904 0.754592
vt 0.230997 0.770636
vt 0.289904 0.770636
vt 0.289904 0.754592
vt 0.289904 0.754592
vt 0.289904 0.770636
vt 0.361827 0.754592
vt 0.289904 0.770636
vt 0.361827 0.770636
vt 0.361827 0.754592
vt 0.361827 0.754592
vt 0.361827 0.770636
vt 0.420734 0.754592
vt 0.361827 0.770636
vt 0.420734 0.770636
vt 0.420734 0.754592
vt 0.583496 0.534599
vt 0.505372 0.515321
vt 0.585250 0.631479
vt 0.505372 0.515321
vt 0.509629 0.613216
vt 0.585250 0.631479
vt 0.505372 0.515321
vt 0.398003 0.506190
vt 0.509629 0.613216
vt 0.398003 0.506190
vt 0.398436 0.603070
vt 0.509629 0.613216
vt 0.398003 0.506190
vt 0.270270 0.508219
vt 0.398436 0.603070
vt 0.270270 0.508219
vt 0.273896 0.605099
vt 0.398436 0.603070
vt 0.270270 0.508219
vt 0.157830 0.513292
vt 0.273896 0.605099
vt 0.157830 0.513292
vt 0.159659 0.613216
vt 0.273896 0.605099
vt 0.157830 0.513292
vt 0.086808 0.530540
vt 0.159659 0.613216
vt 0.086808 0.530540
vt 0.085054 0.622347
vt 0.159659 0.613216
vt 0.086808 0.530540
vt 0.041024 0.550833
vt 0.085054 0.622347
vt 0.041024 0.550833
vt 0.044151 0.637567
vt 0.085054 0.622347
vt 0.626235 0.554891
vt 0.583496 0.534599
vt 0.622094 0.654815
vt 0.583496 0.534599
vt 0.585250 0.631479
vt 0.622094 0.654815
vt 0.509629 0.613216
vt 0.502375 0.745422
vt 0.585250 0.631479
vt 0.502375 0.745422
vt 0.577360 0.756583
vt 0.585250 0.631479
vt 0.577360 0.756583
vt 0.502375 0.745422
vt 0.557810 0.880727
vt 0.502375 0.745422
vt 0.491655 0.871595
vt 0.557810 0.880727
vt 0.585250 0.631479
vt 0.577360 0.756583
vt 0.622094 0.654815
vt 0.577360 0.756583
vt 0.611877 0.772816
vt 0.622094 0.654815
vt 0.611877 0.772816
vt 0.577360 0.756583
vt 0.593668 0.894931
vt 0.577360 0.756583
vt 0.557810 0.880727
vt 0.593668 0.894931
vt 0.398436 0.603070
vt 0.395485 0.740349
vt 0.509629 0.613216
vt 0.395485 0.740349
vt 0.502375 0.745422
vt 0.509629 0.613216
vt 0.502375 0.745422
vt 0.395485 0.740349
vt 0.491655 0.871595
vt 0.395485 0.740349
vt 0.391659 0.866522
vt 0.491655 0.871595
vt 0.273896 0.605099
vt 0.277861 0.739334
vt 0.398436 0.603070
vt 0.277861 0.739334
vt 0.395485 0.740349
vt 0.398436 0.603070
vt 0.395485 0.740349
vt 0.277861 0.739334
vt 0.391659 0.866522
vt 0.277861 0.739334
vt 0.280673 0.866522
vt 0.391659 0.866522
vt 0.159659 0.613216
vt 0.169958 0.748466
vt 0.273896 0.605099
vt 0.169958 0.748466
vt 0.277861 0.739334
vt 0.273896 0.605099
vt 0.277861 0.739334
vt 0.169958 0.748466
vt 0.280673 0.866522
vt 0.169958 0.748466
vt 0.179663 0.871595
vt 0.280673 0.866522
vt 0.085054 0.622347
vt 0.097002 0.761656
vt 0.159659 0.613216
vt 0.097002 0.761656
vt 0.169958 0.748466
vt 0.159659 0.613216
vt 0.169958 0.748466
vt 0.097002 0.761656
vt 0.179663 0.871595
vt 0.097002 0.761656
vt 0.105391 0.886814
vt 0.179663 0.871595
vt 0.044151 0.637567
vt 0.054369 0.779919
vt 0.085054 0.622347
vt 0.054369 0.779919
vt 0.097002 0.761656
vt 0.085054 0.622347
vt 0.097002 0.761656
vt 0.054369 0.779919
vt 0.105391 0.886814
vt 0.054369 0.779919
vt 0.074607 0.904063
vt 0.105391 0.886814
vt 0.454700 0.866685
vt 0.533885 0.883293
vt 0.494076 0.826434
vt 0.533885 0.883293
vt 0.534436 0.842701
vt 0.494076 0.826434
vt 0.126576 0.880331
vt 0.208817 0.863167
vt 0.126369 0.837392
vt 0.208817 0.863167
vt 0.169918 0.829327
vt 0.126369 0.837392
vt 0.208817 0.863167
vt 0.247282 0.864010
vt 0.169918 0.829327
vt 0.247282 0.864010
vt 0.220628 0.825278
vt 0.169918 0.829327
vt 0.247282 0.864010
vt 0.302330 0.862387
vt 0.220628 0.825278
vt 0.302330 0.862387
vt 0.293200 0.827715
vt 0.220628 0.825278
vt 0.302330 0.862387
vt 0.363058 0.863256
vt 0.293200 0.827715
vt 0.363058 0.863256
vt 0.373261 0.828861
vt 0.293200 0.827715
vt 0.363058 0.863256
vt 0.417438 0.866444
vt 0.373261 0.828861
vt 0.417438 0.866444
vt 0.444953 0.828486
vt 0.373261 0.828861
vt 0.417438 0.866444
vt 0.454700 0.866685
vt 0.444953 0.828486
vt 0.454700 0.866685
vt 0.494076 0.826434
vt 0.444953 0.828486
vt 0.512446 0.649351
vt 0.455562 0.578021
vt 0.532747 0.738297
vt 0.455562 0.578021
vt 0.373363 0.538436
vt 0.532747 0.738297
vt 0.532747 0.738297
vt 0.373363 0.538436
vt 0.122749 0.738297
vt 0.373363 0.538436
vt 0.282130 0.538436
vt 0.122749 0.738297
vt 0.122749 0.738297
vt 0.282130 0.538436
vt 0.143049 0.649351
vt 0.282130 0.538436
vt 0.199932 0.578021
vt 0.143049 0.649351
vt 0.462764 0.770636
vt 0.462764 0.754592
vt 0.495865 0.770636
vt 0.462764 0.754592
vt 0.495865 0.754592
vt 0.495865 0.770636
vt 0.420734 0.770636
vt 0.420734 0.754592
vt 0.462764 0.770636
vt 0.420734 0.754592
vt 0.462764 0.754592
vt 0.462764 0.770636
vt 0.155866 0.770636
vt 0.155866 0.754592
vt 0.188967 0.770636
vt 0.155866 0.754592
vt 0.188967 0.754592
vt 0.188967 0.770636
vt 0.188967 0.770636
vt 0.188967 0.754592
vt 0.230997 0.770636
vt 0.188967 0.754592
vt 0.230997 0.754592
vt 0.230997 0.770636
vt 0.230997 0.770636
vt 0.230997 0.754592
vt 0.289904 0.770636
vt 0.230997 0.754592
vt 0.289904 0.754592
vt 0.289904 0.770636
vt 0.289904 0.770636
vt 0.289904 0.754592
vt 0.361827 0.770636
vt 0.289904 0.754592
vt 0.361827 0.754592
vt 0.361827 0.770636
vt 0.361827 0.770636
vt 0.361827 0.754592
vt 0.420734 0.770636
vt 0.361827 0.754592
vt 0.420734 0.754592
vt 0.420734 0.770636
vt 0.626235 0.554891
vt 0.583496 0.534599
vt 0.583496 0.534599
vt 0.583496 0.534599
vt 0.505372 0.515321
vt 0.583496 0.534599
vt 0.583496 0.534599
vt 0.505372 0.515321
vt 0.505372 0.515321
vt 0.505372 0.515321
vt 0.398003 0.506190
vt 0.505372 0.515321
vt 0.505372 0.515321
vt 0.398003 0.506190
vt 0.398003 0.506190
vt 0.398003 0.506190
vt 0.270270 0.508219
vt 0.398003 0.506190
vt 0.398003 0.506190
vt 0.270270 0.508219
vt 0.270270 0.508219
vt 0.270270 0.508219
vt 0.157830 0.513292
vt 0.270270 0.508219
vt 0.270270 0.508219
vt 0.157830 0.513292
vt 0.157830 0.513292
vt 0.157830 0.513292
vt 0.086808 0.530540
vt 0.157830 0.513292
vt 0.157830 0.513292
vt 0.086808 0.530540
vt 0.086808 0.530540
vt 0.086808 0.530540
vt 0.041024 0.550833
vt 0.086808 0.530540
# num_uvs: 492

g half_barrell
s 1

usemtl half_barrell
f 1/1/1 2/2/2 3/3/3 
f 2/4/2 4/5/4 3/6/3 
f 5/7/5 1/8/1 6/9/6 
f 1/10/1 3/11/3 6/12/6 
f 7/13/7 5/14/5 8/15/8 
f 5/16/5 6/17/6 8/18/8 
f 9/19/9 7/20/7 10/21/10 
f 7/22/7 8/23/8 10/24/10 
f 11/25/11 9/26/9 12/27/12 
f 9/28/9 10/29/10 12/30/12 
f 13/31/13 11/32/11 14/33/14 
f 11/34/11 12/35/12 14/36/14 
f 2/37/2 15/38/15 4/39/4 
f 15/40/15 16/41/16 4/42/4 
f 17/43/17 3/44/3 18/45/18 
f 3/46/3 4/47/4 18/48/18 
f 17/49/17 18/50/18 19/51/19 
f 18/52/18 20/53/20 19/54/19 
f 18/55/18 4/56/4 21/57/21 
f 4/58/4 16/59/16 21/60/21 
f 18/61/18 21/62/21 20/63/20 
f 21/64/21 22/65/22 20/66/20 
f 23/67/23 6/68/6 17/69/17 
f 6/70/6 3/71/3 17/72/17 
f 23/73/23 17/74/17 24/75/24 
f 17/76/17 19/77/19 24/78/24 
f 25/79/25 8/80/8 23/81/23 
f 8/82/8 6/83/6 23/84/23 
f 25/85/25 23/86/23 26/87/26 
f 23/88/23 24/89/24 26/90/26 
f 27/91/27 10/92/10 25/93/25 
f 10/94/10 8/95/8 25/96/25 
f 27/97/27 25/98/25 28/99/28 
f 25/100/25 26/101/26 28/102/28 
f 29/103/29 12/104/12 27/105/27 
f 12/106/12 10/107/10 27/108/27 
f 29/109/29 27/110/27 30/111/30 
f 27/112/27 28/113/28 30/114/30 
f 31/115/31 14/116/14 29/117/29 
f 14/118/14 12/119/12 29/120/29 
f 31/121/31 29/122/29 32/123/32 
f 29/124/29 30/125/30 32/126/32 
f 33/127/33 34/128/34 35/129/35 
f 34/130/34 36/131/36 35/132/35 
f 37/133/37 38/134/38 39/135/39 
f 38/136/38 40/137/40 39/138/39 
f 41/139/41 37/140/37 42/141/42 
f 37/142/37 39/143/39 42/144/42 
f 43/145/43 41/146/41 44/147/44 
f 41/148/41 42/149/42 44/150/44 
f 45/151/45 43/152/43 46/153/46 
f 43/154/43 44/155/44 46/156/46 
f 47/157/47 45/158/45 48/159/48 
f 45/160/45 46/161/46 48/162/48 
f 34/163/34 47/164/47 36/165/36 
f 47/166/47 48/167/48 36/168/36 
f 49/169/49 50/170/50 51/171/51 
f 50/172/50 52/173/52 51/174/51 
f 51/175/51 52/176/52 53/177/53 
f 52/178/52 54/179/54 53/180/53 
f 53/181/53 54/182/54 55/183/55 
f 54/184/54 56/185/56 55/186/55 
f 57/187/57 58/188/58 59/189/59 
f 58/190/58 60/191/60 59/192/59 
f 61/193/61 62/194/62 57/195/57 
f 62/196/62 58/197/58 57/198/57 
f 63/199/63 64/200/64 65/201/65 
f 64/202/64 66/203/66 65/204/65 
f 65/205/65 66/206/66 67/207/67 
f 66/208/66 68/209/68 67/210/67 
f 67/211/67 68/212/68 69/213/69 
f 68/214/68 70/215/70 69/216/69 
f 69/217/69 70/218/70 71/219/71 
f 70/220/70 72/221/72 71/222/71 
f 71/223/71 72/224/72 61/225/61 
f 72/226/72 62/227/62 61/228/61 
f 73/229/73 74/230/74 75/231/75 
f 74/232/74 76/233/76 75/234/75 
f 74/235/74 77/236/77 76/237/76 
f 77/238/77 78/239/78 76/240/76 
f 77/241/77 79/242/79 78/243/78 
f 79/244/79 80/245/80 78/246/78 
f 79/247/79 81/248/81 80/249/80 
f 81/250/81 82/251/82 80/252/80 
f 81/253/81 83/254/83 82/255/82 
f 83/256/83 84/257/84 82/258/82 
f 83/259/83 13/260/13 84/261/84 
f 13/262/13 14/263/14 84/264/84 
f 15/265/15 73/266/73 16/267/16 
f 73/268/73 75/269/75 16/270/16 
f 76/271/76 85/272/85 75/273/75 
f 85/274/85 86/275/86 75/276/75 
f 86/277/86 85/278/85 87/279/87 
f 85/280/85 88/281/88 87/282/87 
f 75/283/75 86/284/86 16/285/16 
f 86/286/86 21/287/21 16/288/16 
f 21/289/21 86/290/86 22/291/22 
f 86/292/86 87/293/87 22/294/22 
f 78/295/78 89/296/89 76/297/76 
f 89/298/89 85/299/85 76/300/76 
f 85/301/85 89/302/89 88/303/88 
f 89/304/89 90/305/90 88/306/88 
f 80/307/80 91/308/91 78/309/78 
f 91/310/91 89/311/89 78/312/78 
f 89/313/89 91/314/91 90/315/90 
f 91/316/91 92/317/92 90/318/90 
f 82/319/82 93/320/93 80/321/80 
f 93/322/93 91/323/91 80/324/80 
f 91/325/91 93/326/93 92/327/92 
f 93/328/93 94/329/94 92/330/92 
f 84/331/84 95/332/95 82/333/82 
f 95/334/95 93/335/93 82/336/82 
f 93/337/93 95/338/95 94/339/94 
f 95/340/95 96/341/96 94/342/94 
f 14/343/14 31/344/31 84/345/84 
f 31/346/31 95/347/95 84/348/84 
f 95/349/95 31/350/31 96/351/96 
f 31/352/31 32/353/32 96/354/96 
f 97/355/97 33/356/33 98/357/98 
f 33/358/33 35/359/35 98/360/98 
f 38/361/38 99/362/99 40/363/40 
f 99/364/99 100/365/100 40/366/40 
f 99/367/99 101/368/101 100/369/100 
f 101/370/101 102/371/102 100/372/100 
f 101/373/101 103/374/103 102/375/102 
f 103/376/103 104/377/104 102/378/102 
f 103/379/103 105/380/105 104/381/104 
f 105/382/105 106/383/106 104/384/104 
f 105/385/105 107/386/107 106/387/106 
f 107/388/107 108/389/108 106/390/106 
f 107/391/107 97/392/97 108/393/108 
f 97/394/97 98/395/98 108/396/108 
f 109/397/109 110/398/110 52/399/52 
f 110/400/110 111/401/111 52/402/52 
f 52/403/52 111/404/111 54/405/54 
f 111/406/111 112/407/112 54/408/54 
f 54/409/54 112/410/112 113/411/113 
f 112/412/112 114/413/114 113/414/113 
f 115/415/115 116/416/116 60/417/60 
f 116/418/116 59/419/59 60/420/60 
f 117/421/117 118/422/118 115/423/115 
f 118/424/118 116/425/116 115/426/115 
f 64/427/64 63/428/63 119/429/119 
f 63/430/63 120/431/120 119/432/119 
f 119/433/119 120/434/120 121/435/121 
f 120/436/120 122/437/122 121/438/121 
f 121/439/121 122/440/122 123/441/123 
f 122/442/122 124/443/124 123/444/123 
f 123/445/123 124/446/124 125/447/125 
f 124/448/124 126/449/126 125/450/125 
f 125/451/125 126/452/126 117/453/117 
f 126/454/126 118/455/118 117/456/117 
f 15/457/15 2/458/2 73/459/73 
f 2/460/2 1/461/1 73/462/73 
f 73/463/73 1/464/1 74/465/74 
f 1/466/1 5/467/5 74/468/74 
f 74/469/74 5/470/5 77/471/77 
f 5/472/5 7/473/7 77/474/77 
f 77/475/77 7/476/7 79/477/79 
f 7/478/7 9/479/9 79/480/79 
f 79/481/79 9/482/9 81/483/81 
f 9/484/9 11/485/11 81/486/81 
f 81/487/81 11/488/11 83/489/83 
f 11/490/11 13/491/13 83/492/83 
# num_faces: 164

