# Wavefront OBJ file
# Creator: Ultimate Unwrap3D Pro v3.19
# Website: http://www.unwrap3d.com
# Time: Sun Oct 25 01:16:46 2009
# num_vertices: 40
# num_vertex_normals: 40
# num_uvs: 84
# num_faces: 28
# num_groups: 1

mtllib plank2.mtl

v 5.891800 149.694672 -22.762299
v -5.891800 149.694672 -22.762299
v 5.891800 150.109650 -20.545399
v -5.891800 150.109650 -20.545399
v -5.891800 0.000000 20.545403
v 5.891800 0.000000 20.545403
v -5.891800 0.415627 22.762299
v 5.891800 0.415627 22.762299
v 5.891800 81.279663 -9.351101
v 5.891800 149.694672 -22.762299
v 5.891800 81.695259 -7.134201
v 5.891800 150.109650 -20.545399
v -5.891800 81.279663 -9.351101
v -5.891800 81.695259 -7.134201
v -5.891800 149.694672 -22.762299
v -5.891800 150.109650 -20.545399
v 5.891800 81.279663 -9.351101
v -5.891800 81.279663 -9.351101
v 5.891800 149.694672 -22.762299
v -5.891800 149.694672 -22.762299
v -5.891800 81.695259 -7.134201
v 5.891800 81.695259 -7.134201
v -5.891800 150.109650 -20.545399
v 5.891800 150.109650 -20.545399
v 5.891800 46.238560 -0.242699
v 5.891800 46.654160 1.974201
v 5.891800 0.000000 20.545403
v 5.891800 0.415627 22.762299
v -5.891800 46.238560 -0.242699
v -5.891800 0.000000 20.545403
v -5.891800 46.654160 1.974201
v -5.891800 0.415627 22.762299
v 5.891800 0.000000 20.545403
v -5.891800 0.000000 20.545403
v 5.891800 46.238560 -0.242699
v -5.891800 46.238560 -0.242699
v -5.891800 0.415627 22.762299
v 5.891800 0.415627 22.762299
v -5.891800 46.654160 1.974201
v 5.891800 46.654160 1.974201
# num_vertices: 40

vn 0.000000 0.982928 -0.183993
vn 0.000000 0.982928 -0.183993
vn 0.000000 0.982928 -0.183993
vn 0.000000 0.982928 -0.183993
vn 0.000000 -0.982876 0.184271
vn 0.000000 -0.982876 0.184271
vn 0.000000 -0.982876 0.184271
vn 0.000000 -0.982876 0.184271
vn 1.000000 0.000000 0.000000
vn 1.000000 0.000000 0.000000
vn 1.000000 0.000000 0.000000
vn 1.000000 0.000000 0.000000
vn -1.000000 0.000000 0.000000
vn -1.000000 0.000000 0.000000
vn -1.000000 0.000000 0.000000
vn -1.000000 0.000000 0.000000
vn 0.000000 -0.231934 -0.972732
vn 0.000000 -0.212189 -0.977229
vn 0.000000 -0.192366 -0.981323
vn 0.000000 -0.192366 -0.981323
vn 0.000000 0.231934 0.972731
vn 0.000000 0.212190 0.977228
vn 0.000000 0.192368 0.981323
vn 0.000000 0.192368 0.981323
vn 1.000000 0.000000 0.000000
vn 1.000000 0.000000 0.000000
vn 1.000000 0.000000 0.000000
vn 1.000000 0.000000 0.000000
vn -1.000000 0.000000 0.000000
vn -1.000000 0.000000 0.000000
vn -1.000000 0.000000 0.000000
vn -1.000000 0.000000 0.000000
vn 0.000000 -0.410049 -0.912064
vn 0.000000 -0.410049 -0.912064
vn 0.000000 -0.358350 -0.933587
vn 0.000000 -0.305359 -0.952237
vn 0.000000 0.410049 0.912064
vn 0.000000 0.410049 0.912064
vn 0.000000 0.358350 0.933587
vn 0.000000 0.305359 0.952237
# num_vertex_normals: 40

vt 0.282319 0.286381
vt 0.282319 0.316886
vt 0.275660 0.286381
vt 0.282319 0.316886
vt 0.275660 0.316886
vt 0.275660 0.286381
vt 0.275660 0.285475
vt 0.275660 0.254969
vt 0.282319 0.285475
vt 0.275660 0.254969
vt 0.282319 0.254969
vt 0.282319 0.285475
vt 0.219617 0.259837
vt 0.212469 0.408440
vt 0.205046 0.259721
vt 0.212469 0.408440
vt 0.197899 0.408323
vt 0.205046 0.259721
vt 0.197196 0.259837
vt 0.211767 0.259721
vt 0.204345 0.408440
vt 0.211767 0.259721
vt 0.218914 0.408323
vt 0.204345 0.408440
vt 0.226323 0.254944
vt 0.261714 0.254944
vt 0.226323 0.432059
vt 0.261714 0.254944
vt 0.261714 0.432059
vt 0.226323 0.432059
vt 0.262765 0.254945
vt 0.298157 0.254945
vt 0.262765 0.432059
vt 0.298157 0.254945
vt 0.298157 0.432059
vt 0.262765 0.432059
vt 0.219617 0.259837
vt 0.205046 0.259721
vt 0.209123 0.182733
vt 0.205046 0.259721
vt 0.194552 0.182617
vt 0.209123 0.182733
vt 0.209123 0.182733
vt 0.194552 0.182617
vt 0.203665 0.077103
vt 0.194552 0.182617
vt 0.189094 0.076987
vt 0.203665 0.077103
vt 0.207690 0.182733
vt 0.213148 0.077103
vt 0.222261 0.182617
vt 0.213148 0.077103
vt 0.227719 0.076987
vt 0.222261 0.182617
vt 0.207690 0.182733
vt 0.222261 0.182617
vt 0.197196 0.259837
vt 0.222261 0.182617
vt 0.211767 0.259721
vt 0.197196 0.259837
vt 0.226323 0.044525
vt 0.261714 0.044525
vt 0.226323 0.164228
vt 0.261714 0.044525
vt 0.261714 0.164228
vt 0.226323 0.164228
vt 0.226323 0.164228
vt 0.261714 0.164228
vt 0.226323 0.254944
vt 0.261714 0.164228
vt 0.261714 0.254944
vt 0.226323 0.254944
vt 0.262765 0.044526
vt 0.298157 0.044526
vt 0.262765 0.164230
vt 0.298157 0.044526
vt 0.298157 0.164230
vt 0.262765 0.164230
vt 0.262765 0.164230
vt 0.298157 0.164230
vt 0.262765 0.254945
vt 0.298157 0.164230
vt 0.298157 0.254945
vt 0.262765 0.254945
# num_uvs: 84

g def_surf_mat
s 1

usemtl war_torn3
f 1/1/1 2/2/2 3/3/3 
f 2/4/2 4/5/4 3/6/3 
f 5/7/5 6/8/6 7/9/7 
f 6/10/6 8/11/8 7/12/7 
f 9/13/9 10/14/10 11/15/11 
f 10/16/10 12/17/12 11/18/11 
f 13/19/13 14/20/14 15/21/15 
f 14/22/14 16/23/16 15/24/15 
f 17/25/17 18/26/18 19/27/19 
f 18/28/18 20/29/20 19/30/19 
f 21/31/21 22/32/22 23/33/23 
f 22/34/22 24/35/24 23/36/23 
f 9/37/9 11/38/11 25/39/25 
f 11/40/11 26/41/26 25/42/25 
f 25/43/25 26/44/26 27/45/27 
f 26/46/26 28/47/28 27/48/27 
f 29/49/29 30/50/30 31/51/31 
f 30/52/30 32/53/32 31/54/31 
f 29/55/29 31/56/31 13/57/13 
f 31/58/31 14/59/14 13/60/13 
f 33/61/33 34/62/34 35/63/35 
f 34/64/34 36/65/36 35/66/35 
f 35/67/35 36/68/36 17/69/17 
f 36/70/36 18/71/18 17/72/17 
f 37/73/37 38/74/38 39/75/39 
f 38/76/38 40/77/40 39/78/39 
f 39/79/39 40/80/40 21/81/21 
f 40/82/40 22/83/22 21/84/21 
# num_faces: 28

