# Wavefront OBJ file
# Creator: Ultimate Unwrap3D Pro v3.18
# Time: Fri Oct 09 13:40:04 2009
# num_vertices: 24
# num_vertex_normals: 24
# num_uvs: 36
# num_faces: 12
# num_groups: 1

mtllib floorgrid.mtl

v -6.147100 1.302384 11.130401
v 6.147100 1.302384 11.130401
v -6.147100 1.302384 -11.130401
v 6.147100 1.302384 -11.130401
v -6.147100 0.000000 11.130401
v -6.147100 1.302384 11.130401
v -6.147100 0.000000 -11.130401
v -6.147100 1.302384 -11.130401
v 6.147100 0.000000 11.130401
v -6.147100 0.000000 11.130401
v 6.147100 0.000000 -11.130401
v -6.147100 0.000000 -11.130401
v 6.147100 1.302384 11.130401
v 6.147100 0.000000 11.130401
v 6.147100 1.302384 -11.130401
v 6.147100 0.000000 -11.130401
v -6.147100 0.000000 11.130401
v 6.147100 0.000000 11.130401
v -6.147100 1.302384 11.130401
v 6.147100 1.302384 11.130401
v 6.147100 0.000000 -11.130401
v -6.147100 0.000000 -11.130401
v 6.147100 1.302384 -11.130401
v -6.147100 1.302384 -11.130401
# num_vertices: 24

vn 0.000000 1.000000 0.000000
vn 0.000000 1.000000 0.000000
vn 0.000000 1.000000 0.000000
vn 0.000000 1.000000 0.000000
vn -1.000000 0.000000 0.000000
vn -1.000000 0.000000 0.000000
vn -1.000000 0.000000 0.000000
vn -1.000000 0.000000 0.000000
vn 0.000000 -1.000000 0.000000
vn 0.000000 -1.000000 0.000000
vn 0.000000 -1.000000 0.000000
vn 0.000000 -1.000000 0.000000
vn 1.000000 0.000000 0.000000
vn 1.000000 0.000000 0.000000
vn 1.000000 0.000000 0.000000
vn 1.000000 0.000000 0.000000
vn 0.000000 0.000000 1.000000
vn 0.000000 0.000000 1.000000
vn 0.000000 0.000000 1.000000
vn 0.000000 0.000000 1.000000
vn 0.000000 0.000000 -1.000000
vn 0.000000 0.000000 -1.000000
vn 0.000000 0.000000 -1.000000
vn 0.000000 0.000000 -1.000000
# num_vertex_normals: 24

vt 0.221531 0.106948
vt 0.776296 0.106948
vt 0.221531 0.888722
vt 0.776296 0.106948
vt 0.776296 0.888722
vt 0.221531 0.888722
vt 0.649701 0.176111
vt 0.686641 0.176111
vt 0.649701 0.762845
vt 0.686641 0.176111
vt 0.686641 0.762845
vt 0.649701 0.762845
vt 0.776296 0.106948
vt 0.221531 0.106948
vt 0.776296 0.888722
vt 0.221531 0.106948
vt 0.221531 0.888722
vt 0.776296 0.888722
vt 0.639774 0.762845
vt 0.602835 0.762845
vt 0.639774 0.176111
vt 0.602835 0.762845
vt 0.602835 0.176111
vt 0.639774 0.176111
vt 0.652709 0.783108
vt 0.652709 0.459066
vt 0.689648 0.783108
vt 0.652709 0.459066
vt 0.689648 0.459066
vt 0.689648 0.783108
vt 0.605842 0.783108
vt 0.605842 0.459066
vt 0.642782 0.783108
vt 0.605842 0.459066
vt 0.642782 0.459066
vt 0.642782 0.783108
# num_uvs: 36

g def_surf_mat
s 1

usemtl def_surf_mat
f 1/1/1 2/2/2 3/3/3 
f 2/4/2 4/5/4 3/6/3 
f 5/7/5 6/8/6 7/9/7 
f 6/10/6 8/11/8 7/12/7 
f 9/13/9 10/14/10 11/15/11 
f 10/16/10 12/17/12 11/18/11 
f 13/19/13 14/20/14 15/21/15 
f 14/22/14 16/23/16 15/24/15 
f 17/25/17 18/26/18 19/27/19 
f 18/28/18 20/29/20 19/30/19 
f 21/31/21 22/32/22 23/33/23 
f 22/34/22 24/35/24 23/36/23 
# num_faces: 12

