# Wavefront OBJ file
# Creator: Ultimate Unwrap3D Pro v3.18
# Time: Fri Oct 09 13:40:13 2009
# num_vertices: 36
# num_vertex_normals: 36
# num_uvs: 84
# num_faces: 28
# num_groups: 1

mtllib grid.mtl

v -16.284599 2.451323 -15.193001
v -15.193060 2.451323 -16.284599
v -16.284599 0.000000 -15.193001
v -15.193060 0.000000 -16.284599
v -16.284599 0.000000 14.458397
v -16.284599 2.451323 14.458397
v -14.458390 0.000000 16.284599
v -14.458390 2.451323 16.284599
v 14.541899 0.000000 16.284599
v 14.541899 2.451323 16.284599
v 16.284599 0.000000 14.541901
v 16.284599 2.451323 14.541901
v 14.541899 0.000000 16.284599
v 14.541899 2.451323 16.284599
v 14.484098 2.451323 -16.284599
v 14.484098 0.000000 -16.284599
v -15.193060 2.451323 -16.284599
v -15.193060 0.000000 -16.284599
v 16.284599 0.000000 -14.484100
v 16.284599 2.451323 -14.484100
v 16.284599 2.451323 -14.484100
v 14.484098 2.451323 -16.284599
v 16.284599 2.451323 14.541901
v -15.193060 2.451323 -16.284599
v 14.541899 2.451323 16.284599
v -16.284599 2.451323 -15.193001
v -14.458390 2.451323 16.284599
v -16.284599 2.451323 14.458397
v 16.284599 0.000000 14.541901
v 14.541899 0.000000 16.284599
v 16.284599 0.000000 -14.484100
v -14.458390 0.000000 16.284599
v 14.484098 0.000000 -16.284599
v -16.284599 0.000000 14.458397
v -15.193060 0.000000 -16.284599
v -16.284599 0.000000 -15.193001
# num_vertices: 36

vn -0.923885 0.000000 -0.382671
vn -0.707126 0.000000 -0.707088
vn -0.923885 0.000000 -0.382671
vn -0.707126 0.000000 -0.707088
vn -0.862855 0.000000 0.505450
vn -0.967538 0.000000 0.252725
vn -0.252724 0.000000 0.967538
vn -0.505448 0.000000 0.862857
vn 0.000000 0.000000 1.000000
vn 0.000000 0.000000 1.000000
vn 0.967538 0.000000 0.252725
vn 0.862856 0.000000 0.505450
vn 0.707106 0.000000 0.707107
vn 0.707106 0.000000 0.707107
vn 0.505449 0.000000 -0.862856
vn 0.252725 0.000000 -0.967538
vn 0.000000 0.000000 -1.000000
vn 0.000000 0.000000 -1.000000
vn 0.862856 0.000000 -0.505450
vn 0.967538 0.000000 -0.252725
vn 0.000000 1.000000 0.000000
vn 0.000000 1.000000 0.000000
vn 0.000000 1.000000 0.000000
vn 0.000000 1.000000 0.000000
vn 0.000000 1.000000 0.000000
vn 0.000000 1.000000 0.000000
vn 0.000000 1.000000 0.000000
vn 0.000000 1.000000 0.000000
vn 0.000000 -1.000000 0.000000
vn 0.000000 -1.000000 0.000000
vn 0.000000 -1.000000 0.000000
vn 0.000000 -1.000000 0.000000
vn 0.000000 -1.000000 0.000000
vn 0.000000 -1.000000 0.000000
vn 0.000000 -1.000000 0.000000
vn 0.000000 -1.000000 0.000000
# num_vertex_normals: 36

vt 0.928488 0.944210
vt 0.947466 0.944210
vt 0.928488 0.899540
vt 0.947466 0.944210
vt 0.947466 0.899540
vt 0.928488 0.899540
vt 0.524220 0.899540
vt 0.524220 0.944210
vt 0.928488 0.899540
vt 0.524220 0.944210
vt 0.928488 0.944210
vt 0.928488 0.899540
vt 0.491735 0.899540
vt 0.491735 0.944210
vt 0.524220 0.899540
vt 0.491735 0.944210
vt 0.524220 0.944210
vt 0.524220 0.899540
vt 0.093437 0.899540
vt 0.093437 0.944210
vt 0.491735 0.899540
vt 0.093437 0.944210
vt 0.491735 0.944210
vt 0.491735 0.899540
vt 0.111666 0.899540
vt 0.111666 0.944210
vt 0.080748 0.899540
vt 0.111666 0.944210
vt 0.080748 0.944210
vt 0.080748 0.899540
vt 0.542207 0.944210
vt 0.542207 0.899540
vt 0.946718 0.944210
vt 0.542207 0.899540
vt 0.946718 0.899540
vt 0.946718 0.944210
vt 0.510206 0.899540
vt 0.510206 0.944210
vt 0.111666 0.899540
vt 0.510206 0.944210
vt 0.111666 0.944210
vt 0.111666 0.899540
vt 0.950000 0.900246
vt 0.900246 0.950000
vt 0.950000 0.098157
vt 0.900246 0.950000
vt 0.080163 0.950000
vt 0.950000 0.098157
vt 0.950000 0.098157
vt 0.080163 0.950000
vt 0.901843 0.050000
vt 0.080163 0.950000
vt 0.050000 0.919835
vt 0.901843 0.050000
vt 0.901843 0.050000
vt 0.050000 0.919835
vt 0.100464 0.050000
vt 0.050000 0.919835
vt 0.050000 0.100464
vt 0.100464 0.050000
vt 0.950000 0.098157
vt 0.901843 0.050000
vt 0.950000 0.900246
vt 0.901843 0.050000
vt 0.100464 0.050000
vt 0.950000 0.900246
vt 0.950000 0.900246
vt 0.100464 0.050000
vt 0.900246 0.950000
vt 0.100464 0.050000
vt 0.050000 0.100464
vt 0.900246 0.950000
vt 0.900246 0.950000
vt 0.050000 0.100464
vt 0.080163 0.950000
vt 0.050000 0.100464
vt 0.050000 0.919835
vt 0.080163 0.950000
vt 0.542207 0.899540
vt 0.542207 0.944210
vt 0.510206 0.899540
vt 0.542207 0.944210
vt 0.510206 0.944210
vt 0.510206 0.899540
# num_uvs: 84

g def_surf_mat
s 1

usemtl def_surf_mat
f 1/1/1 2/2/2 3/3/3 
f 2/4/2 4/5/4 3/6/3 
f 5/7/5 6/8/6 3/9/3 
f 6/10/6 1/11/1 3/12/3 
f 7/13/7 8/14/8 5/15/5 
f 8/16/8 6/17/6 5/18/5 
f 9/19/9 10/20/10 7/21/7 
f 10/22/10 8/23/8 7/24/7 
f 11/25/11 12/26/12 13/27/13 
f 12/28/12 14/29/14 13/30/13 
f 15/31/15 16/32/16 17/33/17 
f 16/34/16 18/35/18 17/36/17 
f 19/37/19 20/38/20 11/39/11 
f 20/40/20 12/41/12 11/42/11 
f 21/43/21 22/44/22 23/45/23 
f 22/46/22 24/47/24 23/48/23 
f 23/49/23 24/50/24 25/51/25 
f 24/52/24 26/53/26 25/54/25 
f 25/55/25 26/56/26 27/57/27 
f 26/58/26 28/59/28 27/60/27 
f 29/61/29 30/62/30 31/63/31 
f 30/64/30 32/65/32 31/66/31 
f 31/67/31 32/68/32 33/69/33 
f 32/70/32 34/71/34 33/72/33 
f 33/73/33 34/74/34 35/75/35 
f 34/76/34 36/77/36 35/78/35 
f 16/79/16 15/80/15 19/81/19 
f 15/82/15 20/83/20 19/84/19 
# num_faces: 28

