# Wavefront OBJ file
# Creator: Ultimate Unwrap3D Pro v3.18
# Time: Fri Oct 09 13:40:37 2009
# num_vertices: 96
# num_vertex_normals: 96
# num_uvs: 492
# num_faces: 164
# num_groups: 1

mtllib oldwall2.mtl

v -102.266006 0.000000 -5.174950
v -102.266006 0.000000 5.174950
v -115.311996 0.000000 -5.174950
v -115.311996 0.000000 5.174950
v -86.943695 0.000000 -5.174950
v -86.943695 0.000000 5.174950
v -63.285698 0.000000 -5.174950
v -63.285698 0.000000 5.174950
v -48.559200 0.000000 -5.174950
v -48.559200 0.000000 5.174950
v -32.113300 0.000000 -5.174950
v -32.113300 0.000000 5.174950
v -14.813999 0.000000 -5.174950
v -14.813999 0.000000 5.174950
v -0.013421 0.000000 -5.174950
v -0.013421 0.000000 5.174950
v 21.181702 0.000000 -5.174950
v 21.181702 0.000000 5.174950
v 39.630302 0.000000 -5.174950
v 39.630302 0.000000 5.174950
v 58.045403 0.000000 -5.174950
v 58.045403 0.000000 5.174950
v 76.601700 0.000000 -5.174950
v 76.601700 0.000000 5.174950
v 96.156097 0.000000 -5.174950
v 115.311996 0.000000 -5.174950
v 96.156097 0.000000 5.174950
v 115.311996 0.000000 5.174950
v -102.266006 77.243958 5.174950
v -115.311996 77.243958 5.174950
v -86.943695 77.243958 5.174950
v -63.285698 76.402359 5.174950
v -48.559200 77.243958 5.174950
v -32.113300 77.243958 5.174950
v -14.813999 77.243958 5.174950
v -0.013421 75.961060 5.174950
v 21.181702 77.243958 5.174950
v 39.630302 77.243958 5.174950
v 58.045403 77.243958 5.174950
v 76.601700 76.195259 5.174950
v 96.156097 77.243958 5.174950
v 115.311996 75.773758 5.174950
v -102.266006 80.551361 2.923851
v -115.311996 80.551361 2.923851
v 96.156097 80.551361 2.923851
v 115.311996 79.081161 2.923851
v -86.943695 80.551361 2.923851
v -63.285698 79.709755 2.923851
v -48.559200 80.551361 2.923851
v -32.113300 80.551361 2.923851
v -14.813999 80.551361 2.923851
v -0.013421 79.268456 2.923851
v 21.181702 80.551361 2.923851
v 39.630302 80.551361 2.923851
v 58.045403 80.551361 2.923851
v 76.601700 79.502655 2.923851
v -102.266006 77.474060 -5.174950
v -115.311996 77.474060 -5.174950
v -86.943695 77.474060 -5.174950
v -63.285698 76.632561 -5.174950
v -48.559200 77.474060 -5.174950
v -32.113300 77.474060 -5.174950
v -14.813999 77.474060 -5.174950
v -0.013421 76.191261 -5.174950
v 21.181702 77.474060 -5.174950
v 39.630302 77.474060 -5.174950
v 58.045403 77.474060 -5.174950
v 76.601700 76.425461 -5.174950
v 96.156097 77.474060 -5.174950
v 115.311996 76.003960 -5.174950
v 115.311996 76.003960 -5.174950
v 115.311996 79.081161 -3.080650
v 115.311996 0.000000 -5.174950
v 115.311996 79.081161 2.923851
v 115.311996 0.000000 5.174950
v 115.311996 75.773758 5.174950
v -115.311996 77.474060 -5.174950
v -115.311996 0.000000 -5.174950
v -115.311996 80.551361 -3.080650
v -115.311996 0.000000 5.174950
v -115.311996 80.551361 2.923851
v -115.311996 77.243958 5.174950
v -102.266006 80.551361 -3.080650
v -115.311996 80.551361 -3.080650
v -86.943695 80.551361 -3.080650
v -63.285698 79.709755 -3.080650
v -48.559200 80.551361 -3.080650
v -32.113300 80.551361 -3.080650
v -14.813999 80.551361 -3.080650
v -0.013421 79.268456 -3.080650
v 21.181702 80.551361 -3.080650
v 39.630302 80.551361 -3.080650
v 58.045403 80.551361 -3.080650
v 76.601700 79.502655 -3.080650
v 96.156097 80.551361 -3.080650
v 115.311996 79.081161 -3.080650
# num_vertices: 96

vn 0.000000 -0.707107 -0.707107
vn 0.000000 -0.707107 0.707107
vn 0.000000 -0.707107 -0.707107
vn 0.000000 -0.707107 0.707107
vn 0.000000 -0.707107 -0.707107
vn 0.000000 -0.707107 0.707107
vn 0.000000 -0.707107 -0.707107
vn 0.000000 -0.707107 0.707107
vn 0.000000 -0.707107 -0.707107
vn 0.000000 -0.707107 0.707107
vn 0.000000 -0.707107 -0.707107
vn 0.000000 -0.707107 0.707107
vn 0.000000 -0.707107 -0.707107
vn 0.000000 -0.707107 0.707107
vn 0.000000 -0.707107 -0.707107
vn 0.000000 -0.707107 0.707107
vn 0.000000 -0.707107 -0.707107
vn 0.000000 -0.707107 0.707107
vn 0.000000 -0.707107 -0.707107
vn 0.000000 -0.707107 0.707107
vn 0.000000 -0.707107 -0.707107
vn 0.000000 -0.707107 0.707107
vn 0.000000 -0.707107 -0.707107
vn 0.000000 -0.707107 0.707107
vn 0.000000 -0.554700 -0.832050
vn 0.000000 -0.894427 -0.447214
vn 0.000000 -0.800000 0.600000
vn 0.000000 -0.447214 0.894427
vn 0.000000 0.336104 0.941825
vn 0.000000 0.195224 0.980759
vn 0.006980 0.294349 0.955673
vn -0.007721 0.294306 0.955680
vn -0.005605 0.294345 0.955683
vn 0.000000 0.294375 0.955690
vn 0.016995 0.294216 0.955588
vn -0.003378 0.294259 0.955720
vn -0.005936 0.294342 0.955682
vn 0.000000 0.294375 0.955690
vn 0.011087 0.294308 0.955646
vn -0.004979 0.294302 0.955699
vn 0.002712 0.234954 0.972003
vn 0.029944 0.390156 0.920262
vn 0.000000 0.928225 0.372020
vn 0.000000 0.789291 0.614020
vn -0.000745 0.846005 0.533174
vn 0.072838 0.949038 0.306628
vn 0.010477 0.883863 0.467628
vn 0.004138 0.883841 0.467770
vn -0.033641 0.883338 0.467529
vn 0.000000 0.883930 0.467620
vn 0.025480 0.883537 0.467667
vn 0.033175 0.883181 0.467858
vn -0.035625 0.883266 0.467518
vn 0.000000 0.883930 0.467620
vn 0.016635 0.883762 0.467640
vn 0.017494 0.883664 0.467794
vn 0.000000 0.235039 -0.971986
vn 0.000000 0.390422 -0.920636
vn 0.003489 0.294344 -0.955693
vn 0.001375 0.294315 -0.955707
vn -0.011210 0.294289 -0.955651
vn 0.000000 0.294355 -0.955696
vn 0.008495 0.294287 -0.955679
vn 0.011059 0.294198 -0.955681
vn -0.011872 0.294280 -0.955645
vn 0.000000 0.294355 -0.955696
vn 0.005542 0.294326 -0.955689
vn 0.005826 0.294284 -0.955700
vn 0.003879 0.335985 -0.941860
vn 0.014970 0.195070 -0.980675
vn 1.000000 0.000000 0.000000
vn 1.000000 0.000000 0.000000
vn 1.000000 0.000000 0.000000
vn 1.000000 0.000000 0.000000
vn 1.000000 0.000000 0.000000
vn 1.000000 0.000000 0.000000
vn -1.000000 0.000000 0.000000
vn -1.000000 0.000000 0.000000
vn -1.000000 0.000000 0.000000
vn -1.000000 0.000000 0.000000
vn -1.000000 0.000000 0.000000
vn -1.000000 0.000000 0.000000
vn 0.000000 0.846163 -0.532924
vn 0.000000 0.951703 -0.307021
vn 0.020954 0.883691 -0.467601
vn -0.023172 0.883575 -0.467715
vn -0.016821 0.883749 -0.467659
vn 0.000000 0.883920 -0.467638
vn 0.050951 0.882563 -0.467426
vn -0.010167 0.883668 -0.468003
vn -0.017814 0.883728 -0.467661
vn 0.000000 0.883920 -0.467638
vn 0.033267 0.883342 -0.467547
vn -0.014950 0.883698 -0.467819
vn 0.025345 0.927758 -0.372321
vn 0.060443 0.787553 -0.613276
# num_vertex_normals: 96

vt 0.077750 0.292149
vt 0.077750 0.292149
vt 0.023445 0.292149
vt 0.077750 0.292149
vt 0.023445 0.292149
vt 0.023445 0.292149
vt 0.141531 0.292149
vt 0.141531 0.292149
vt 0.077750 0.292149
vt 0.141531 0.292149
vt 0.077750 0.292149
vt 0.077750 0.292149
vt 0.240010 0.292149
vt 0.240010 0.292149
vt 0.141531 0.292149
vt 0.240010 0.292149
vt 0.141531 0.292149
vt 0.141531 0.292149
vt 0.301311 0.292149
vt 0.301311 0.292149
vt 0.240010 0.292149
vt 0.301311 0.292149
vt 0.240010 0.292149
vt 0.240010 0.292149
vt 0.369769 0.292149
vt 0.369769 0.292149
vt 0.301311 0.292149
vt 0.369769 0.292149
vt 0.301311 0.292149
vt 0.301311 0.292149
vt 0.441780 0.292149
vt 0.441780 0.292149
vt 0.369769 0.292149
vt 0.441780 0.292149
vt 0.369769 0.292149
vt 0.369769 0.292149
vt 0.503389 0.292149
vt 0.503389 0.292149
vt 0.441780 0.292149
vt 0.503389 0.292149
vt 0.441780 0.292149
vt 0.441780 0.292149
vt 0.591616 0.292149
vt 0.591616 0.292149
vt 0.503389 0.292149
vt 0.591616 0.292149
vt 0.503389 0.292149
vt 0.503389 0.292149
vt 0.668411 0.292149
vt 0.668411 0.292149
vt 0.591616 0.292149
vt 0.668411 0.292149
vt 0.591616 0.292149
vt 0.591616 0.292149
vt 0.745066 0.292149
vt 0.745066 0.292149
vt 0.668411 0.292149
vt 0.745066 0.292149
vt 0.668411 0.292149
vt 0.668411 0.292149
vt 0.822308 0.292149
vt 0.822308 0.292149
vt 0.745066 0.292149
vt 0.822308 0.292149
vt 0.745066 0.292149
vt 0.745066 0.292149
vt 0.903706 0.292149
vt 0.983445 0.292149
vt 0.903706 0.292149
vt 0.983445 0.292149
vt 0.983445 0.292149
vt 0.903706 0.292149
vt 0.903706 0.292149
vt 0.903706 0.292149
vt 0.822308 0.292149
vt 0.903706 0.292149
vt 0.822308 0.292149
vt 0.822308 0.292149
vt 0.077750 0.935224
vt 0.023445 0.935224
vt 0.077750 0.292149
vt 0.023445 0.935224
vt 0.023445 0.292149
vt 0.077750 0.292149
vt 0.141531 0.935224
vt 0.077750 0.935224
vt 0.141531 0.292149
vt 0.077750 0.935224
vt 0.077750 0.292149
vt 0.141531 0.292149
vt 0.240010 0.928217
vt 0.141531 0.935224
vt 0.240010 0.292149
vt 0.141531 0.935224
vt 0.141531 0.292149
vt 0.240010 0.292149
vt 0.301311 0.935224
vt 0.240010 0.928217
vt 0.301311 0.292149
vt 0.240010 0.928217
vt 0.240010 0.292149
vt 0.301311 0.292149
vt 0.369769 0.935224
vt 0.301311 0.935224
vt 0.369769 0.292149
vt 0.301311 0.935224
vt 0.301311 0.292149
vt 0.369769 0.292149
vt 0.441780 0.935224
vt 0.369769 0.935224
vt 0.441780 0.292149
vt 0.369769 0.935224
vt 0.369769 0.292149
vt 0.441780 0.292149
vt 0.503389 0.924543
vt 0.441780 0.935224
vt 0.503389 0.292149
vt 0.441780 0.935224
vt 0.441780 0.292149
vt 0.503389 0.292149
vt 0.591616 0.935224
vt 0.503389 0.924543
vt 0.591616 0.292149
vt 0.503389 0.924543
vt 0.503389 0.292149
vt 0.591616 0.292149
vt 0.668411 0.935224
vt 0.591616 0.935224
vt 0.668411 0.292149
vt 0.591616 0.935224
vt 0.591616 0.292149
vt 0.668411 0.292149
vt 0.745066 0.935224
vt 0.668411 0.935224
vt 0.745066 0.292149
vt 0.668411 0.935224
vt 0.668411 0.292149
vt 0.745066 0.292149
vt 0.822308 0.926493
vt 0.745066 0.935224
vt 0.822308 0.292149
vt 0.745066 0.935224
vt 0.745066 0.292149
vt 0.822308 0.292149
vt 0.903706 0.292149
vt 0.983445 0.292149
vt 0.903706 0.935224
vt 0.983445 0.292149
vt 0.983445 0.922984
vt 0.903706 0.935224
vt 0.903706 0.935224
vt 0.822308 0.926493
vt 0.903706 0.292149
vt 0.822308 0.926493
vt 0.822308 0.292149
vt 0.903706 0.292149
vt 0.077750 0.962759
vt 0.023445 0.962759
vt 0.077750 0.935224
vt 0.023445 0.962759
vt 0.023445 0.935224
vt 0.077750 0.935224
vt 0.903706 0.935224
vt 0.983445 0.922984
vt 0.903706 0.962759
vt 0.983445 0.922984
vt 0.983445 0.950519
vt 0.903706 0.962759
vt 0.077750 0.962759
vt 0.077750 0.935224
vt 0.141531 0.962759
vt 0.077750 0.935224
vt 0.141531 0.935224
vt 0.141531 0.962759
vt 0.141531 0.962759
vt 0.141531 0.935224
vt 0.240010 0.955752
vt 0.141531 0.935224
vt 0.240010 0.928217
vt 0.240010 0.955752
vt 0.240010 0.955752
vt 0.240010 0.928217
vt 0.301311 0.962759
vt 0.240010 0.928217
vt 0.301311 0.935224
vt 0.301311 0.962759
vt 0.301311 0.962759
vt 0.301311 0.935224
vt 0.369769 0.962759
vt 0.301311 0.935224
vt 0.369769 0.935224
vt 0.369769 0.962759
vt 0.369769 0.962759
vt 0.369769 0.935224
vt 0.441780 0.962759
vt 0.369769 0.935224
vt 0.441780 0.935224
vt 0.441780 0.962759
vt 0.441780 0.962759
vt 0.441780 0.935224
vt 0.503389 0.952078
vt 0.441780 0.935224
vt 0.503389 0.924543
vt 0.503389 0.952078
vt 0.503389 0.952078
vt 0.503389 0.924543
vt 0.591616 0.962759
vt 0.503389 0.924543
vt 0.591616 0.935224
vt 0.591616 0.962759
vt 0.591616 0.962759
vt 0.591616 0.935224
vt 0.668411 0.962759
vt 0.591616 0.935224
vt 0.668411 0.935224
vt 0.668411 0.962759
vt 0.668411 0.962759
vt 0.668411 0.935224
vt 0.745066 0.962759
vt 0.668411 0.935224
vt 0.745066 0.935224
vt 0.745066 0.962759
vt 0.745066 0.962759
vt 0.745066 0.935224
vt 0.822308 0.954028
vt 0.745066 0.935224
vt 0.822308 0.926493
vt 0.822308 0.954028
vt 0.822308 0.954028
vt 0.822308 0.926493
vt 0.903706 0.962759
vt 0.822308 0.926493
vt 0.903706 0.935224
vt 0.903706 0.962759
vt 0.077750 0.292149
vt 0.023445 0.292149
vt 0.077750 0.937139
vt 0.023445 0.292149
vt 0.023445 0.937139
vt 0.077750 0.937139
vt 0.077750 0.937139
vt 0.141531 0.937139
vt 0.077750 0.292149
vt 0.141531 0.937139
vt 0.141531 0.292149
vt 0.077750 0.292149
vt 0.141531 0.937139
vt 0.240010 0.930134
vt 0.141531 0.292149
vt 0.240010 0.930134
vt 0.240010 0.292149
vt 0.141531 0.292149
vt 0.240010 0.930134
vt 0.301311 0.937139
vt 0.240010 0.292149
vt 0.301311 0.937139
vt 0.301311 0.292149
vt 0.240010 0.292149
vt 0.301311 0.937139
vt 0.369769 0.937139
vt 0.301311 0.292149
vt 0.369769 0.937139
vt 0.369769 0.292149
vt 0.301311 0.292149
vt 0.369769 0.937139
vt 0.441780 0.937139
vt 0.369769 0.292149
vt 0.441780 0.937139
vt 0.441780 0.292149
vt 0.369769 0.292149
vt 0.441780 0.937139
vt 0.503389 0.926460
vt 0.441780 0.292149
vt 0.503389 0.926460
vt 0.503389 0.292149
vt 0.441780 0.292149
vt 0.503389 0.926460
vt 0.591616 0.937139
vt 0.503389 0.292149
vt 0.591616 0.937139
vt 0.591616 0.292149
vt 0.503389 0.292149
vt 0.591616 0.937139
vt 0.668411 0.937139
vt 0.591616 0.292149
vt 0.668411 0.937139
vt 0.668411 0.292149
vt 0.591616 0.292149
vt 0.668411 0.937139
vt 0.745066 0.937139
vt 0.668411 0.292149
vt 0.745066 0.937139
vt 0.745066 0.292149
vt 0.668411 0.292149
vt 0.745066 0.937139
vt 0.822308 0.928410
vt 0.745066 0.292149
vt 0.822308 0.928410
vt 0.822308 0.292149
vt 0.745066 0.292149
vt 0.822308 0.928410
vt 0.903706 0.937139
vt 0.822308 0.292149
vt 0.903706 0.937139
vt 0.903706 0.292149
vt 0.822308 0.292149
vt 0.903706 0.937139
vt 0.983445 0.924901
vt 0.903706 0.292149
vt 0.983445 0.924901
vt 0.983445 0.292149
vt 0.903706 0.292149
vt 0.540064 0.920195
vt 0.525244 0.900627
vt 0.540064 0.297454
vt 0.525244 0.900627
vt 0.482755 0.945408
vt 0.540064 0.297454
vt 0.540064 0.297454
vt 0.482755 0.945408
vt 0.466826 0.297454
vt 0.482755 0.945408
vt 0.466826 0.918308
vt 0.466826 0.297454
vt 0.540064 0.932240
vt 0.540064 0.297454
vt 0.525244 0.912673
vt 0.540064 0.297454
vt 0.466826 0.297454
vt 0.525244 0.912673
vt 0.525244 0.912673
vt 0.466826 0.297454
vt 0.482755 0.957454
vt 0.466826 0.297454
vt 0.466826 0.930355
vt 0.482755 0.957454
vt 0.077750 0.917978
vt 0.023445 0.917978
vt 0.077750 0.962759
vt 0.023445 0.917978
vt 0.023445 0.962759
vt 0.077750 0.962759
vt 0.077750 0.962759
vt 0.141531 0.962759
vt 0.077750 0.917978
vt 0.141531 0.962759
vt 0.141531 0.917978
vt 0.077750 0.917978
vt 0.141531 0.962759
vt 0.240010 0.955752
vt 0.141531 0.917978
vt 0.240010 0.955752
vt 0.240010 0.910971
vt 0.141531 0.917978
vt 0.240010 0.955752
vt 0.301311 0.962759
vt 0.240010 0.910971
vt 0.301311 0.962759
vt 0.301311 0.917978
vt 0.240010 0.910971
vt 0.301311 0.962759
vt 0.369769 0.962759
vt 0.301311 0.917978
vt 0.369769 0.962759
vt 0.369769 0.917978
vt 0.301311 0.917978
vt 0.369769 0.962759
vt 0.441780 0.962759
vt 0.369769 0.917978
vt 0.441780 0.962759
vt 0.441780 0.917978
vt 0.369769 0.917978
vt 0.441780 0.962759
vt 0.503389 0.952078
vt 0.441780 0.917978
vt 0.503389 0.952078
vt 0.503389 0.907297
vt 0.441780 0.917978
vt 0.503389 0.952078
vt 0.591616 0.962759
vt 0.503389 0.907297
vt 0.591616 0.962759
vt 0.591616 0.917978
vt 0.503389 0.907297
vt 0.591616 0.962759
vt 0.668411 0.962759
vt 0.591616 0.917978
vt 0.668411 0.962759
vt 0.668411 0.917978
vt 0.591616 0.917978
vt 0.668411 0.962759
vt 0.745066 0.962759
vt 0.668411 0.917978
vt 0.745066 0.962759
vt 0.745066 0.917978
vt 0.668411 0.917978
vt 0.745066 0.962759
vt 0.822308 0.954028
vt 0.745066 0.917978
vt 0.822308 0.954028
vt 0.822308 0.909247
vt 0.745066 0.917978
vt 0.822308 0.954028
vt 0.903706 0.962759
vt 0.822308 0.909247
vt 0.903706 0.962759
vt 0.903706 0.917978
vt 0.822308 0.909247
vt 0.903706 0.962759
vt 0.983445 0.950519
vt 0.903706 0.917978
vt 0.983445 0.950519
vt 0.983445 0.905738
vt 0.903706 0.917978
vt 0.077750 0.937139
vt 0.023445 0.937139
vt 0.077750 0.917978
vt 0.023445 0.937139
vt 0.023445 0.917978
vt 0.077750 0.917978
vt 0.903706 0.917978
vt 0.983445 0.905738
vt 0.903706 0.937139
vt 0.983445 0.905738
vt 0.983445 0.924901
vt 0.903706 0.937139
vt 0.077750 0.937139
vt 0.077750 0.917978
vt 0.141531 0.937139
vt 0.077750 0.917978
vt 0.141531 0.917978
vt 0.141531 0.937139
vt 0.141531 0.937139
vt 0.141531 0.917978
vt 0.240010 0.930134
vt 0.141531 0.917978
vt 0.240010 0.910971
vt 0.240010 0.930134
vt 0.240010 0.930134
vt 0.240010 0.910971
vt 0.301311 0.937139
vt 0.240010 0.910971
vt 0.301311 0.917978
vt 0.301311 0.937139
vt 0.301311 0.937139
vt 0.301311 0.917978
vt 0.369769 0.937139
vt 0.301311 0.917978
vt 0.369769 0.917978
vt 0.369769 0.937139
vt 0.369769 0.937139
vt 0.369769 0.917978
vt 0.441780 0.937139
vt 0.369769 0.917978
vt 0.441780 0.917978
vt 0.441780 0.937139
vt 0.441780 0.937139
vt 0.441780 0.917978
vt 0.503389 0.926460
vt 0.441780 0.917978
vt 0.503389 0.907297
vt 0.503389 0.926460
vt 0.503389 0.926460
vt 0.503389 0.907297
vt 0.591616 0.937139
vt 0.503389 0.907297
vt 0.591616 0.917978
vt 0.591616 0.937139
vt 0.591616 0.937139
vt 0.591616 0.917978
vt 0.668411 0.937139
vt 0.591616 0.917978
vt 0.668411 0.917978
vt 0.668411 0.937139
vt 0.668411 0.937139
vt 0.668411 0.917978
vt 0.745066 0.937139
vt 0.668411 0.917978
vt 0.745066 0.917978
vt 0.745066 0.937139
vt 0.745066 0.937139
vt 0.745066 0.917978
vt 0.822308 0.928410
vt 0.745066 0.917978
vt 0.822308 0.909247
vt 0.822308 0.928410
vt 0.822308 0.928410
vt 0.822308 0.909247
vt 0.903706 0.937139
vt 0.822308 0.909247
vt 0.903706 0.917978
vt 0.903706 0.937139
# num_uvs: 492

g def_surf_mat
s 1

usemtl def_surf_mat
f 1/1/1 2/2/2 3/3/3 
f 2/4/2 4/5/4 3/6/3 
f 5/7/5 6/8/6 1/9/1 
f 6/10/6 2/11/2 1/12/1 
f 7/13/7 8/14/8 5/15/5 
f 8/16/8 6/17/6 5/18/5 
f 9/19/9 10/20/10 7/21/7 
f 10/22/10 8/23/8 7/24/7 
f 11/25/11 12/26/12 9/27/9 
f 12/28/12 10/29/10 9/30/9 
f 13/31/13 14/32/14 11/33/11 
f 14/34/14 12/35/12 11/36/11 
f 15/37/15 16/38/16 13/39/13 
f 16/40/16 14/41/14 13/42/13 
f 17/43/17 18/44/18 15/45/15 
f 18/46/18 16/47/16 15/48/15 
f 19/49/19 20/50/20 17/51/17 
f 20/52/20 18/53/18 17/54/17 
f 21/55/21 22/56/22 19/57/19 
f 22/58/22 20/59/20 19/60/19 
f 23/61/23 24/62/24 21/63/21 
f 24/64/24 22/65/22 21/66/21 
f 25/67/25 26/68/26 27/69/27 
f 26/70/26 28/71/28 27/72/27 
f 25/73/25 27/74/27 23/75/23 
f 27/76/27 24/77/24 23/78/23 
f 29/79/29 30/80/30 2/81/2 
f 30/82/30 4/83/4 2/84/2 
f 31/85/31 29/86/29 6/87/6 
f 29/88/29 2/89/2 6/90/6 
f 32/91/32 31/92/31 8/93/8 
f 31/94/31 6/95/6 8/96/8 
f 33/97/33 32/98/32 10/99/10 
f 32/100/32 8/101/8 10/102/10 
f 34/103/34 33/104/33 12/105/12 
f 33/106/33 10/107/10 12/108/12 
f 35/109/35 34/110/34 14/111/14 
f 34/112/34 12/113/12 14/114/14 
f 36/115/36 35/116/35 16/117/16 
f 35/118/35 14/119/14 16/120/16 
f 37/121/37 36/122/36 18/123/18 
f 36/124/36 16/125/16 18/126/18 
f 38/127/38 37/128/37 20/129/20 
f 37/130/37 18/131/18 20/132/20 
f 39/133/39 38/134/38 22/135/22 
f 38/136/38 20/137/20 22/138/22 
f 40/139/40 39/140/39 24/141/24 
f 39/142/39 22/143/22 24/144/24 
f 27/145/27 28/146/28 41/147/41 
f 28/148/28 42/149/42 41/150/41 
f 41/151/41 40/152/40 27/153/27 
f 40/154/40 24/155/24 27/156/27 
f 43/157/43 44/158/44 29/159/29 
f 44/160/44 30/161/30 29/162/29 
f 41/163/41 42/164/42 45/165/45 
f 42/166/42 46/167/46 45/168/45 
f 43/169/43 29/170/29 47/171/47 
f 29/172/29 31/173/31 47/174/47 
f 47/175/47 31/176/31 48/177/48 
f 31/178/31 32/179/32 48/180/48 
f 48/181/48 32/182/32 49/183/49 
f 32/184/32 33/185/33 49/186/49 
f 49/187/49 33/188/33 50/189/50 
f 33/190/33 34/191/34 50/192/50 
f 50/193/50 34/194/34 51/195/51 
f 34/196/34 35/197/35 51/198/51 
f 51/199/51 35/200/35 52/201/52 
f 35/202/35 36/203/36 52/204/52 
f 52/205/52 36/206/36 53/207/53 
f 36/208/36 37/209/37 53/210/53 
f 53/211/53 37/212/37 54/213/54 
f 37/214/37 38/215/38 54/216/54 
f 54/217/54 38/218/38 55/219/55 
f 38/220/38 39/221/39 55/222/55 
f 55/223/55 39/224/39 56/225/56 
f 39/226/39 40/227/40 56/228/56 
f 56/229/56 40/230/40 45/231/45 
f 40/232/40 41/233/41 45/234/45 
f 1/235/1 3/236/3 57/237/57 
f 3/238/3 58/239/58 57/240/57 
f 57/241/57 59/242/59 1/243/1 
f 59/244/59 5/245/5 1/246/1 
f 59/247/59 60/248/60 5/249/5 
f 60/250/60 7/251/7 5/252/5 
f 60/253/60 61/254/61 7/255/7 
f 61/256/61 9/257/9 7/258/7 
f 61/259/61 62/260/62 9/261/9 
f 62/262/62 11/263/11 9/264/9 
f 62/265/62 63/266/63 11/267/11 
f 63/268/63 13/269/13 11/270/11 
f 63/271/63 64/272/64 13/273/13 
f 64/274/64 15/275/15 13/276/13 
f 64/277/64 65/278/65 15/279/15 
f 65/280/65 17/281/17 15/282/15 
f 65/283/65 66/284/66 17/285/17 
f 66/286/66 19/287/19 17/288/17 
f 66/289/66 67/290/67 19/291/19 
f 67/292/67 21/293/21 19/294/19 
f 67/295/67 68/296/68 21/297/21 
f 68/298/68 23/299/23 21/300/21 
f 68/301/68 69/302/69 23/303/23 
f 69/304/69 25/305/25 23/306/23 
f 69/307/69 70/308/70 25/309/25 
f 70/310/70 26/311/26 25/312/25 
f 71/313/71 72/314/72 73/315/73 
f 72/316/72 74/317/74 73/318/73 
f 73/319/73 74/320/74 75/321/75 
f 74/322/74 76/323/76 75/324/75 
f 77/325/77 78/326/78 79/327/79 
f 78/328/78 80/329/80 79/330/79 
f 79/331/79 80/332/80 81/333/81 
f 80/334/80 82/335/82 81/336/81 
f 83/337/83 84/338/84 43/339/43 
f 84/340/84 44/341/44 43/342/43 
f 43/343/43 47/344/47 83/345/83 
f 47/346/47 85/347/85 83/348/83 
f 47/349/47 48/350/48 85/351/85 
f 48/352/48 86/353/86 85/354/85 
f 48/355/48 49/356/49 86/357/86 
f 49/358/49 87/359/87 86/360/86 
f 49/361/49 50/362/50 87/363/87 
f 50/364/50 88/365/88 87/366/87 
f 50/367/50 51/368/51 88/369/88 
f 51/370/51 89/371/89 88/372/88 
f 51/373/51 52/374/52 89/375/89 
f 52/376/52 90/377/90 89/378/89 
f 52/379/52 53/380/53 90/381/90 
f 53/382/53 91/383/91 90/384/90 
f 53/385/53 54/386/54 91/387/91 
f 54/388/54 92/389/92 91/390/91 
f 54/391/54 55/392/55 92/393/92 
f 55/394/55 93/395/93 92/396/92 
f 55/397/55 56/398/56 93/399/93 
f 56/400/56 94/401/94 93/402/93 
f 56/403/56 45/404/45 94/405/94 
f 45/406/45 95/407/95 94/408/94 
f 45/409/45 46/410/46 95/411/95 
f 46/412/46 96/413/96 95/414/95 
f 57/415/57 58/416/58 83/417/83 
f 58/418/58 84/419/84 83/420/83 
f 95/421/95 96/422/96 69/423/69 
f 96/424/96 70/425/70 69/426/69 
f 57/427/57 83/428/83 59/429/59 
f 83/430/83 85/431/85 59/432/59 
f 59/433/59 85/434/85 60/435/60 
f 85/436/85 86/437/86 60/438/60 
f 60/439/60 86/440/86 61/441/61 
f 86/442/86 87/443/87 61/444/61 
f 61/445/61 87/446/87 62/447/62 
f 87/448/87 88/449/88 62/450/62 
f 62/451/62 88/452/88 63/453/63 
f 88/454/88 89/455/89 63/456/63 
f 63/457/63 89/458/89 64/459/64 
f 89/460/89 90/461/90 64/462/64 
f 64/463/64 90/464/90 65/465/65 
f 90/466/90 91/467/91 65/468/65 
f 65/469/65 91/470/91 66/471/66 
f 91/472/91 92/473/92 66/474/66 
f 66/475/66 92/476/92 67/477/67 
f 92/478/92 93/479/93 67/480/67 
f 67/481/67 93/482/93 68/483/68 
f 93/484/93 94/485/94 68/486/68 
f 68/487/68 94/488/94 69/489/69 
f 94/490/94 95/491/95 69/492/69 
# num_faces: 164

