# Wavefront OBJ file
# Creator: Ultimate Unwrap3D Pro v3.18
# Time: Fri Oct 09 13:41:20 2009
# num_vertices: 52
# num_vertex_normals: 52
# num_uvs: 216
# num_faces: 72
# num_groups: 1

mtllib rubbish1.mtl

v -34.031700 0.353308 8.110802
v -32.341801 0.264768 11.411503
v -34.031700 0.528008 1.816502
v -32.341198 0.619608 -1.483898
v 24.651800 4.633538 -9.302197
v 33.433701 0.899468 -11.567097
v 21.166401 1.156838 -20.840099
v 27.908800 1.108158 -19.086197
v 20.390600 4.249738 -8.206398
v 17.107401 1.155198 -20.780998
v 15.682200 4.338868 -6.975697
v 12.780971 1.143678 -20.365700
v 11.337391 5.208478 -5.941498
v 8.509931 1.109308 -19.127399
v 4.869278 1.037348 -16.534698
v 6.945601 4.857618 -4.654499
v 0.828161 0.949428 -13.367199
v 0.549770 4.257648 -2.854099
v -5.224799 0.953968 -13.530800
v -6.142900 4.526148 0.025803
v -12.368500 0.916138 -12.167797
v -12.889599 3.970098 2.517700
v -17.603500 0.860158 -10.150597
v -18.793999 3.473328 4.551401
v -22.511299 0.832918 -9.169296
v -24.699200 4.383948 6.307901
v -29.136700 3.933108 8.780602
v -28.415001 0.731008 -5.497700
v 26.267200 2.829418 -2.892300
v 28.423601 0.421218 5.663801
v 33.740303 0.712018 -4.813499
v 34.031700 0.533848 1.606003
v 21.854500 2.599168 -1.734596
v 23.797401 0.388108 6.856901
v 17.384001 4.605118 -0.258797
v 18.833000 0.351008 8.193502
v 13.261621 6.846588 0.934601
v 14.774590 0.310738 9.644402
v 8.347370 7.577818 2.321903
v 10.212360 0.207304 13.371101
v 0.533381 5.672578 4.106901
v 0.048020 0.012105 20.403902
v -6.636999 6.564248 7.039303
v -7.368299 0.046908 19.150002
v -13.278500 5.250598 9.491402
v -13.312199 0.045395 19.204502
v -19.139000 2.053278 11.210901
v -19.637800 0.000000 20.840103
v -25.163799 2.107928 12.810202
v -25.581799 0.060527 18.659302
v -28.415001 0.150298 15.425001
v -28.470001 0.438918 14.918001
# num_vertices: 52

vn -0.001817 0.999613 0.027745
vn -0.331260 0.931544 0.149977
vn -0.001140 0.999618 0.027625
vn -0.358347 0.931416 -0.063657
vn 0.145762 0.987098 -0.066271
vn 0.233804 0.966060 -0.109836
vn 0.096462 0.972951 -0.209910
vn 0.000000 0.999615 0.027744
vn -0.022060 0.999637 0.015451
vn -0.056404 0.968808 -0.241307
vn 0.107317 0.986082 -0.126983
vn -0.045248 0.973416 -0.224529
vn 0.031089 0.968738 -0.246131
vn -0.052444 0.962985 -0.264405
vn -0.193791 0.944863 -0.263969
vn -0.139799 0.946917 -0.289488
vn -0.130526 0.948439 -0.288837
vn -0.123274 0.956554 -0.264213
vn -0.039424 0.961376 -0.272400
vn -0.084736 0.964914 -0.248516
vn -0.100084 0.969520 -0.223636
vn -0.163187 0.963972 -0.210068
vn -0.092138 0.977515 -0.189669
vn -0.081172 0.994527 -0.065775
vn -0.040658 0.976444 -0.211907
vn 0.017168 0.999201 0.036091
vn -0.222002 0.951698 0.212097
vn -0.214938 0.949055 -0.230427
vn 0.116857 0.965170 0.234075
vn 0.125342 0.979400 0.158322
vn 0.257929 0.960723 0.102390
vn -0.000001 0.999615 0.027744
vn 0.173040 0.964676 0.198639
vn 0.043283 0.968147 0.246611
vn 0.366965 0.922429 0.120256
vn 0.229782 0.912774 0.337704
vn 0.243735 0.969453 0.027460
vn 0.330809 0.812518 0.479978
vn 0.028263 0.990873 0.131803
vn 0.171688 0.868937 0.464190
vn 0.012081 0.995161 0.097507
vn 0.128069 0.916830 0.378180
vn -0.047344 0.994577 0.092604
vn -0.023435 0.881242 0.472083
vn -0.204757 0.956123 0.209530
vn -0.093021 0.918192 0.385059
vn -0.058323 0.960145 0.273348
vn 0.001346 0.968511 0.248967
vn -0.040294 0.940044 0.338665
vn -0.302494 0.878015 0.370926
vn -0.234404 0.833676 0.500038
vn -0.149888 0.879702 0.451284
# num_vertex_normals: 52

vt 0.045336 0.453160
vt 0.066192 0.412425
vt 0.045336 0.530841
vt 0.066192 0.412425
vt 0.066199 0.571572
vt 0.045336 0.530841
vt 0.769574 0.668061
vt 0.877955 0.696014
vt 0.726559 0.810456
vt 0.877955 0.696014
vt 0.809770 0.788810
vt 0.726559 0.810456
vt 0.716985 0.654538
vt 0.769574 0.668061
vt 0.676465 0.809726
vt 0.769574 0.668061
vt 0.726559 0.810456
vt 0.676465 0.809726
vt 0.658876 0.639349
vt 0.716985 0.654538
vt 0.623071 0.804601
vt 0.716985 0.654538
vt 0.676465 0.809726
vt 0.623071 0.804601
vt 0.605255 0.626586
vt 0.658876 0.639349
vt 0.570360 0.789319
vt 0.658876 0.639349
vt 0.623071 0.804601
vt 0.570360 0.789319
vt 0.570360 0.789319
vt 0.525429 0.757321
vt 0.605255 0.626586
vt 0.525429 0.757321
vt 0.551054 0.610702
vt 0.605255 0.626586
vt 0.525429 0.757321
vt 0.475556 0.718229
vt 0.551054 0.610702
vt 0.475556 0.718229
vt 0.472121 0.588483
vt 0.551054 0.610702
vt 0.475556 0.718229
vt 0.400854 0.720248
vt 0.472121 0.588483
vt 0.400854 0.720248
vt 0.389523 0.552941
vt 0.472121 0.588483
vt 0.400854 0.720248
vt 0.312691 0.703427
vt 0.389523 0.552941
vt 0.312691 0.703427
vt 0.306259 0.522187
vt 0.389523 0.552941
vt 0.312691 0.703427
vt 0.248083 0.678532
vt 0.306259 0.522187
vt 0.248083 0.678532
vt 0.233391 0.497088
vt 0.306259 0.522187
vt 0.248083 0.678532
vt 0.187514 0.666421
vt 0.233391 0.497088
vt 0.187514 0.666421
vt 0.160512 0.475410
vt 0.233391 0.497088
vt 0.105747 0.444894
vt 0.160512 0.475410
vt 0.114654 0.621108
vt 0.160512 0.475410
vt 0.187514 0.666421
vt 0.114654 0.621108
vt 0.066192 0.412425
vt 0.105747 0.444894
vt 0.066199 0.571572
vt 0.105747 0.444894
vt 0.114654 0.621108
vt 0.066199 0.571572
vt 0.789510 0.588954
vt 0.816124 0.483360
vt 0.881739 0.612664
vt 0.816124 0.483360
vt 0.885336 0.533439
vt 0.881739 0.612664
vt 0.789510 0.588954
vt 0.881739 0.612664
vt 0.769574 0.668061
vt 0.881739 0.612664
vt 0.877955 0.696014
vt 0.769574 0.668061
vt 0.735051 0.574666
vt 0.759030 0.468635
vt 0.789510 0.588954
vt 0.759030 0.468635
vt 0.816124 0.483360
vt 0.789510 0.588954
vt 0.735051 0.574666
vt 0.789510 0.588954
vt 0.716985 0.654538
vt 0.789510 0.588954
vt 0.769574 0.668061
vt 0.716985 0.654538
vt 0.679879 0.556453
vt 0.697762 0.452139
vt 0.735051 0.574666
vt 0.697762 0.452139
vt 0.759030 0.468635
vt 0.735051 0.574666
vt 0.679879 0.556453
vt 0.735051 0.574666
vt 0.658876 0.639349
vt 0.735051 0.574666
vt 0.716985 0.654538
vt 0.658876 0.639349
vt 0.629003 0.541725
vt 0.647675 0.434233
vt 0.679879 0.556453
vt 0.647675 0.434233
vt 0.697762 0.452139
vt 0.679879 0.556453
vt 0.629003 0.541725
vt 0.679879 0.556453
vt 0.605255 0.626586
vt 0.679879 0.556453
vt 0.658876 0.639349
vt 0.605255 0.626586
vt 0.605255 0.626586
vt 0.551054 0.610702
vt 0.629003 0.541725
vt 0.551054 0.610702
vt 0.568354 0.524603
vt 0.629003 0.541725
vt 0.629003 0.541725
vt 0.568354 0.524603
vt 0.647675 0.434233
vt 0.568354 0.524603
vt 0.591371 0.388240
vt 0.647675 0.434233
vt 0.551054 0.610702
vt 0.472121 0.588483
vt 0.568354 0.524603
vt 0.472121 0.588483
vt 0.471918 0.502574
vt 0.568354 0.524603
vt 0.568354 0.524603
vt 0.471918 0.502574
vt 0.591371 0.388240
vt 0.471918 0.502574
vt 0.465928 0.301446
vt 0.591371 0.388240
vt 0.472121 0.588483
vt 0.389523 0.552941
vt 0.471918 0.502574
vt 0.389523 0.552941
vt 0.383425 0.466384
vt 0.471918 0.502574
vt 0.471918 0.502574
vt 0.383425 0.466384
vt 0.465928 0.301446
vt 0.383425 0.466384
vt 0.374400 0.316920
vt 0.465928 0.301446
vt 0.389523 0.552941
vt 0.306259 0.522187
vt 0.383425 0.466384
vt 0.306259 0.522187
vt 0.301460 0.436121
vt 0.383425 0.466384
vt 0.383425 0.466384
vt 0.301460 0.436121
vt 0.374400 0.316920
vt 0.301460 0.436121
vt 0.301044 0.316248
vt 0.374400 0.316920
vt 0.306259 0.522187
vt 0.233391 0.497088
vt 0.301460 0.436121
vt 0.233391 0.497088
vt 0.229133 0.414900
vt 0.301460 0.436121
vt 0.301460 0.436121
vt 0.229133 0.414900
vt 0.301044 0.316248
vt 0.229133 0.414900
vt 0.222977 0.296062
vt 0.301044 0.316248
vt 0.233391 0.497088
vt 0.160512 0.475410
vt 0.229133 0.414900
vt 0.160512 0.475410
vt 0.154779 0.395163
vt 0.229133 0.414900
vt 0.229133 0.414900
vt 0.154779 0.395163
vt 0.222977 0.296062
vt 0.154779 0.395163
vt 0.149620 0.322976
vt 0.222977 0.296062
vt 0.114654 0.362892
vt 0.149620 0.322976
vt 0.113975 0.369149
vt 0.149620 0.322976
vt 0.154779 0.395163
vt 0.113975 0.369149
vt 0.113975 0.369149
vt 0.154779 0.395163
vt 0.105747 0.444894
vt 0.154779 0.395163
vt 0.160512 0.475410
vt 0.105747 0.444894
vt 0.066192 0.412425
vt 0.114654 0.362892
vt 0.105747 0.444894
vt 0.114654 0.362892
vt 0.113975 0.369149
vt 0.105747 0.444894
# num_uvs: 216

g def_surf_mat
s 1

usemtl rubbish1
f 1/1/1 2/2/2 3/3/3 
f 2/4/2 4/5/4 3/6/3 
f 5/7/5 6/8/6 7/9/7 
f 6/10/6 8/11/8 7/12/7 
f 9/13/9 5/14/5 10/15/10 
f 5/16/5 7/17/7 10/18/10 
f 11/19/11 9/20/9 12/21/12 
f 9/22/9 10/23/10 12/24/12 
f 13/25/13 11/26/11 14/27/14 
f 11/28/11 12/29/12 14/30/14 
f 14/31/14 15/32/15 13/33/13 
f 15/34/15 16/35/16 13/36/13 
f 15/37/15 17/38/17 16/39/16 
f 17/40/17 18/41/18 16/42/16 
f 17/43/17 19/44/19 18/45/18 
f 19/46/19 20/47/20 18/48/18 
f 19/49/19 21/50/21 20/51/20 
f 21/52/21 22/53/22 20/54/20 
f 21/55/21 23/56/23 22/57/22 
f 23/58/23 24/59/24 22/60/22 
f 23/61/23 25/62/25 24/63/24 
f 25/64/25 26/65/26 24/66/24 
f 27/67/27 26/68/26 28/69/28 
f 26/70/26 25/71/25 28/72/28 
f 2/73/2 27/74/27 4/75/4 
f 27/76/27 28/77/28 4/78/4 
f 29/79/29 30/80/30 31/81/31 
f 30/82/30 32/83/32 31/84/31 
f 29/85/29 31/86/31 5/87/5 
f 31/88/31 6/89/6 5/90/5 
f 33/91/33 34/92/34 29/93/29 
f 34/94/34 30/95/30 29/96/29 
f 33/97/33 29/98/29 9/99/9 
f 29/100/29 5/101/5 9/102/9 
f 35/103/35 36/104/36 33/105/33 
f 36/106/36 34/107/34 33/108/33 
f 35/109/35 33/110/33 11/111/11 
f 33/112/33 9/113/9 11/114/11 
f 37/115/37 38/116/38 35/117/35 
f 38/118/38 36/119/36 35/120/35 
f 37/121/37 35/122/35 13/123/13 
f 35/124/35 11/125/11 13/126/13 
f 13/127/13 16/128/16 37/129/37 
f 16/130/16 39/131/39 37/132/37 
f 37/133/37 39/134/39 38/135/38 
f 39/136/39 40/137/40 38/138/38 
f 16/139/16 18/140/18 39/141/39 
f 18/142/18 41/143/41 39/144/39 
f 39/145/39 41/146/41 40/147/40 
f 41/148/41 42/149/42 40/150/40 
f 18/151/18 20/152/20 41/153/41 
f 20/154/20 43/155/43 41/156/41 
f 41/157/41 43/158/43 42/159/42 
f 43/160/43 44/161/44 42/162/42 
f 20/163/20 22/164/22 43/165/43 
f 22/166/22 45/167/45 43/168/43 
f 43/169/43 45/170/45 44/171/44 
f 45/172/45 46/173/46 44/174/44 
f 22/175/22 24/176/24 45/177/45 
f 24/178/24 47/179/47 45/180/45 
f 45/181/45 47/182/47 46/183/46 
f 47/184/47 48/185/48 46/186/46 
f 24/187/24 26/188/26 47/189/47 
f 26/190/26 49/191/49 47/192/47 
f 47/193/47 49/194/49 48/195/48 
f 49/196/49 50/197/50 48/198/48 
f 51/199/51 50/200/50 52/201/52 
f 50/202/50 49/203/49 52/204/52 
f 52/205/52 49/206/49 27/207/27 
f 49/208/49 26/209/26 27/210/27 
f 2/211/2 51/212/51 27/213/27 
f 51/214/51 52/215/52 27/216/27 
# num_faces: 72

