# Wavefront OBJ file
# Creator: Ultimate Unwrap3D Pro v3.18
# Time: Fri Oct 09 13:42:01 2009
# num_vertices: 72
# num_vertex_normals: 72
# num_uvs: 420
# num_faces: 140
# num_groups: 1

mtllib rubbish6.mtl

v -23.181000 3.834340 12.813200
v -26.755100 3.862760 13.580000
v -24.736500 3.624780 7.158500
v -27.628799 3.680150 8.652700
v -31.544100 3.755120 10.675400
v -30.155901 3.853730 13.336401
v -26.714901 3.437880 2.115501
v -28.813200 3.530090 4.603500
v -31.072100 3.629350 7.281900
v -18.846600 0.271450 3.877401
v -17.749300 3.725280 9.870300
v -22.526600 3.256100 -2.789399
v -12.629601 0.135730 0.215101
v -12.186700 3.509570 4.050001
v -15.720600 3.059790 -8.086599
v -4.514710 0.033930 -2.531600
v -2.959280 3.470790 3.003601
v -7.409380 2.931330 -11.552599
v 2.487650 0.000000 -3.447100
v 2.603330 3.545930 5.030900
v -2.108530 2.856200 -13.580000
v 7.003180 0.033930 -2.531600
v 8.296830 3.613790 6.862100
v 3.912180 2.878010 -12.991400
v 11.715000 0.055750 -1.942999
v 13.794000 3.662260 8.170000
v 9.016700 2.890130 -12.664400
v 20.746099 3.363020 0.095500
v 16.869801 3.676810 8.562401
v 16.215401 2.911940 -12.075800
v 23.283199 2.948300 -11.094900
v 24.738100 3.207900 -4.089900
v 28.060499 2.970110 -10.506300
v 29.057301 3.103690 -6.901999
v 30.678200 2.996770 -9.786898
v 31.544100 3.055210 -8.209997
v -26.755100 4.185490 13.568001
v -23.162901 4.151430 12.754700
v -27.628799 4.002880 8.640800
v -24.684000 3.941580 7.124101
v -30.155901 4.176470 13.324501
v -31.544100 4.077850 10.663500
v -28.813200 3.852810 4.591501
v -26.653999 3.761110 2.117000
v -31.072100 3.952080 7.269901
v -18.818600 0.590230 3.833900
v -17.792801 4.015000 9.734501
v -22.432600 3.560630 -2.737099
v -12.643900 0.455060 0.169101
v -12.266300 3.770900 3.877700
v -15.667000 3.365450 -7.997099
v -4.505050 0.353990 -2.573599
v -2.972380 3.748070 2.838500
v -7.378690 3.240740 -11.465300
v 2.500930 0.321770 -3.471299
v 2.624110 3.839370 4.897701
v -2.104370 3.166920 -13.492098
v 7.009800 0.356450 -2.546999
v 8.321230 3.913510 6.744300
v 3.900310 3.188360 -12.902899
v 11.680500 0.376630 -1.954699
v 13.768300 3.970140 8.075901
v 8.975670 3.202510 -12.593500
v 20.697800 3.682180 0.085901
v 16.799900 3.983880 8.490801
v 16.178699 3.232060 -12.053999
v 23.283199 3.271030 -11.106798
v 24.738100 3.530630 -4.101899
v 28.060499 3.292840 -10.518297
v 29.057301 3.426420 -6.914000
v 30.678200 3.319500 -9.798899
v 31.544100 3.377940 -8.221899
# num_vertices: 72

vn 0.237369 -0.512313 0.825343
vn 0.073371 -0.770998 0.632597
vn -0.163918 -0.985801 0.036429
vn -0.000000 -0.999314 0.037035
vn -0.665298 -0.714642 0.216022
vn -0.361838 -0.319239 0.875876
vn -0.565611 -0.685100 -0.459045
vn -0.636206 -0.574221 -0.515278
vn -0.780184 -0.577623 -0.240135
vn -0.166217 -0.983041 0.077478
vn 0.608847 -0.224050 0.760991
vn -0.672928 -0.477525 -0.564923
vn 0.107470 -0.982770 0.150379
vn 0.372093 -0.148194 0.916289
vn -0.486199 -0.440209 -0.754868
vn 0.011751 -0.987073 0.159840
vn -0.129308 -0.294484 0.946868
vn -0.334300 -0.463523 -0.820603
vn -0.014105 -0.996441 0.083108
vn -0.283239 -0.370151 0.884739
vn -0.170420 -0.493595 -0.852831
vn -0.017334 -0.998429 0.053276
vn -0.223199 -0.413775 0.882594
vn 0.084848 -0.483686 -0.871119
vn 0.102830 -0.992733 0.062513
vn -0.068137 -0.513196 0.855563
vn 0.065125 -0.503241 -0.861689
vn 0.512586 -0.781661 0.355332
vn 0.666008 -0.146300 0.731458
vn 0.161766 -0.598888 -0.784324
vn 0.094184 -0.719407 -0.688173
vn 0.429247 -0.687987 0.585168
vn 0.120321 -0.733233 -0.669248
vn 0.348391 -0.684180 0.640719
vn 0.409833 -0.608235 -0.679770
vn 0.911229 -0.411570 -0.016471
vn 0.022082 0.588766 0.808002
vn 0.210987 0.760725 0.613826
vn 0.000662 0.999306 -0.037239
vn 0.102811 0.983719 -0.147401
vn -0.553847 0.621246 0.554353
vn -0.690296 0.723298 0.018224
vn -0.442929 0.798491 -0.407709
vn -0.352120 0.816837 -0.456934
vn -0.822561 0.308916 -0.477457
vn 0.070793 0.972163 -0.223353
vn 0.341108 0.883883 0.319995
vn -0.270181 0.906874 -0.323393
vn -0.006299 0.984924 -0.172873
vn 0.147060 0.985472 0.084963
vn -0.199042 0.893827 -0.401814
vn 0.049859 0.993174 -0.105445
vn -0.037957 0.980458 0.193033
vn -0.183570 0.875811 -0.446383
vn 0.037196 0.997784 -0.055159
vn -0.156329 0.944203 0.289900
vn -0.037006 0.876873 -0.479295
vn 0.008625 0.999160 -0.040068
vn -0.126454 0.924216 0.360324
vn 0.029532 0.869500 -0.493050
vn -0.118558 0.992947 -0.000084
vn -0.101350 0.901873 0.419944
vn -0.048068 0.814651 -0.577956
vn 0.360791 0.877774 0.315187
vn 0.110317 0.821756 0.559059
vn 0.077378 0.709322 -0.700625
vn 0.088721 0.680701 -0.727169
vn 0.461475 0.740336 0.488818
vn 0.154028 0.681886 -0.715057
vn 0.367263 0.729360 0.577193
vn 0.681030 0.313055 -0.661963
vn 0.605065 0.684774 0.406178
# num_vertex_normals: 72

vt 0.210982 0.200814
vt 0.167926 0.185013
vt 0.192243 0.317335
vt 0.167926 0.185013
vt 0.157401 0.286546
vt 0.192243 0.317335
vt 0.157401 0.286546
vt 0.167926 0.185013
vt 0.110234 0.244866
vt 0.167926 0.185013
vt 0.126957 0.190033
vt 0.110234 0.244866
vt 0.192243 0.317335
vt 0.157401 0.286546
vt 0.168410 0.421252
vt 0.157401 0.286546
vt 0.143133 0.369984
vt 0.168410 0.421252
vt 0.143133 0.369984
vt 0.157401 0.286546
vt 0.115920 0.314792
vt 0.157401 0.286546
vt 0.110234 0.244866
vt 0.115920 0.314792
vt 0.192243 0.317335
vt 0.263196 0.384946
vt 0.210982 0.200814
vt 0.263196 0.384946
vt 0.276415 0.261456
vt 0.210982 0.200814
vt 0.168410 0.421252
vt 0.218865 0.522322
vt 0.192243 0.317335
vt 0.218865 0.522322
vt 0.263196 0.384946
vt 0.192243 0.317335
vt 0.263196 0.384946
vt 0.338090 0.460411
vt 0.276415 0.261456
vt 0.338090 0.460411
vt 0.343426 0.381389
vt 0.276415 0.261456
vt 0.218865 0.522322
vt 0.300854 0.631477
vt 0.263196 0.384946
vt 0.300854 0.631477
vt 0.338090 0.460411
vt 0.263196 0.384946
vt 0.338090 0.460411
vt 0.435847 0.517010
vt 0.343426 0.381389
vt 0.435847 0.517010
vt 0.458259 0.384581
vt 0.343426 0.381389
vt 0.300854 0.631477
vt 0.390873 0.745148
vt 0.338090 0.460411
vt 0.390873 0.745148
vt 0.435847 0.517010
vt 0.338090 0.460411
vt 0.435847 0.517010
vt 0.520202 0.535875
vt 0.458259 0.384581
vt 0.520202 0.535875
vt 0.521596 0.361177
vt 0.458259 0.384581
vt 0.390873 0.745148
vt 0.465752 0.770392
vt 0.435847 0.517010
vt 0.465752 0.770392
vt 0.520202 0.535875
vt 0.435847 0.517010
vt 0.520202 0.535875
vt 0.574599 0.517010
vt 0.521596 0.361177
vt 0.574599 0.517010
vt 0.599368 0.306910
vt 0.521596 0.361177
vt 0.465752 0.770392
vt 0.541037 0.783981
vt 0.520202 0.535875
vt 0.541037 0.783981
vt 0.574599 0.517010
vt 0.520202 0.535875
vt 0.574599 0.517010
vt 0.631361 0.504881
vt 0.599368 0.306910
vt 0.631361 0.504881
vt 0.664672 0.274448
vt 0.599368 0.306910
vt 0.541037 0.783981
vt 0.611714 0.788265
vt 0.574599 0.517010
vt 0.611714 0.788265
vt 0.631361 0.504881
vt 0.574599 0.517010
vt 0.631361 0.504881
vt 0.775977 0.486757
vt 0.664672 0.274448
vt 0.775977 0.486757
vt 0.729280 0.260851
vt 0.664672 0.274448
vt 0.611714 0.788265
vt 0.694760 0.763277
vt 0.631361 0.504881
vt 0.694760 0.763277
vt 0.775977 0.486757
vt 0.631361 0.504881
vt 0.694760 0.763277
vt 0.793681 0.728369
vt 0.775977 0.486757
vt 0.793681 0.728369
vt 0.811208 0.584023
vt 0.775977 0.486757
vt 0.793681 0.728369
vt 0.851231 0.716240
vt 0.811208 0.584023
vt 0.851231 0.716240
vt 0.863240 0.641970
vt 0.811208 0.584023
vt 0.851231 0.716240
vt 0.882766 0.701416
vt 0.863240 0.641970
vt 0.882766 0.701416
vt 0.893197 0.668922
vt 0.863240 0.641970
vt 0.167926 0.185261
vt 0.211200 0.202019
vt 0.157401 0.286791
vt 0.211200 0.202019
vt 0.192875 0.318044
vt 0.157401 0.286791
vt 0.167926 0.185261
vt 0.157401 0.286791
vt 0.126957 0.190278
vt 0.157401 0.286791
vt 0.110234 0.245111
vt 0.126957 0.190278
vt 0.157401 0.286791
vt 0.192875 0.318044
vt 0.143133 0.370231
vt 0.192875 0.318044
vt 0.169144 0.421221
vt 0.143133 0.370231
vt 0.157401 0.286791
vt 0.143133 0.370231
vt 0.110234 0.245111
vt 0.143133 0.370231
vt 0.115920 0.315040
vt 0.110234 0.245111
vt 0.263534 0.385842
vt 0.192875 0.318044
vt 0.275891 0.264254
vt 0.192875 0.318044
vt 0.211200 0.202019
vt 0.275891 0.264254
vt 0.219997 0.521245
vt 0.169144 0.421221
vt 0.263534 0.385842
vt 0.169144 0.421221
vt 0.192875 0.318044
vt 0.263534 0.385842
vt 0.337918 0.461359
vt 0.263534 0.385842
vt 0.342467 0.384940
vt 0.263534 0.385842
vt 0.275891 0.264254
vt 0.342467 0.384940
vt 0.301500 0.629633
vt 0.219997 0.521245
vt 0.337918 0.461359
vt 0.219997 0.521245
vt 0.263534 0.385842
vt 0.337918 0.461359
vt 0.435964 0.517875
vt 0.337918 0.461359
vt 0.458101 0.387983
vt 0.337918 0.461359
vt 0.342467 0.384940
vt 0.458101 0.387983
vt 0.391242 0.743349
vt 0.301500 0.629633
vt 0.435964 0.517875
vt 0.301500 0.629633
vt 0.337918 0.461359
vt 0.435964 0.517875
vt 0.520362 0.536374
vt 0.435964 0.517875
vt 0.521846 0.363921
vt 0.435964 0.517875
vt 0.458101 0.387983
vt 0.521846 0.363921
vt 0.465802 0.768581
vt 0.391242 0.743349
vt 0.520362 0.536374
vt 0.391242 0.743349
vt 0.435964 0.517875
vt 0.520362 0.536374
vt 0.574679 0.517327
vt 0.520362 0.536374
vt 0.599662 0.309337
vt 0.520362 0.536374
vt 0.521846 0.363921
vt 0.599662 0.309337
vt 0.540894 0.782158
vt 0.465802 0.768581
vt 0.574679 0.517327
vt 0.465802 0.768581
vt 0.520362 0.536374
vt 0.574679 0.517327
vt 0.630945 0.505122
vt 0.574679 0.517327
vt 0.664362 0.276387
vt 0.574679 0.517327
vt 0.599662 0.309337
vt 0.664362 0.276387
vt 0.611220 0.786804
vt 0.540894 0.782158
vt 0.630945 0.505122
vt 0.540894 0.782158
vt 0.574679 0.517327
vt 0.630945 0.505122
vt 0.775395 0.486955
vt 0.630945 0.505122
vt 0.728438 0.262326
vt 0.630945 0.505122
vt 0.664362 0.276387
vt 0.728438 0.262326
vt 0.694318 0.762828
vt 0.611220 0.786804
vt 0.775395 0.486955
vt 0.611220 0.786804
vt 0.630945 0.505122
vt 0.775395 0.486955
vt 0.793681 0.728614
vt 0.694318 0.762828
vt 0.811208 0.584271
vt 0.694318 0.762828
vt 0.775395 0.486955
vt 0.811208 0.584271
vt 0.851231 0.716487
vt 0.793681 0.728614
vt 0.863240 0.642217
vt 0.793681 0.728614
vt 0.811208 0.584271
vt 0.863240 0.642217
vt 0.882766 0.701663
vt 0.851231 0.716487
vt 0.893197 0.669168
vt 0.851231 0.716487
vt 0.863240 0.642217
vt 0.893197 0.669168
vt 0.167926 0.185261
vt 0.167926 0.185013
vt 0.211200 0.202019
vt 0.167926 0.185013
vt 0.210982 0.200814
vt 0.211200 0.202019
vt 0.211200 0.202019
vt 0.210982 0.200814
vt 0.275891 0.264254
vt 0.210982 0.200814
vt 0.276415 0.261456
vt 0.275891 0.264254
vt 0.169144 0.421221
vt 0.168410 0.421252
vt 0.143133 0.370231
vt 0.168410 0.421252
vt 0.143133 0.369984
vt 0.143133 0.370231
vt 0.219997 0.521245
vt 0.218865 0.522322
vt 0.169144 0.421221
vt 0.218865 0.522322
vt 0.168410 0.421252
vt 0.169144 0.421221
vt 0.115920 0.315040
vt 0.115920 0.314792
vt 0.110234 0.245111
vt 0.115920 0.314792
vt 0.110234 0.244866
vt 0.110234 0.245111
vt 0.143133 0.370231
vt 0.143133 0.369984
vt 0.115920 0.315040
vt 0.143133 0.369984
vt 0.115920 0.314792
vt 0.115920 0.315040
vt 0.110234 0.245111
vt 0.110234 0.244866
vt 0.126957 0.190278
vt 0.110234 0.244866
vt 0.126957 0.190033
vt 0.126957 0.190278
vt 0.126957 0.190278
vt 0.126957 0.190033
vt 0.167926 0.185261
vt 0.126957 0.190033
vt 0.167926 0.185013
vt 0.167926 0.185261
vt 0.275891 0.264254
vt 0.276415 0.261456
vt 0.342467 0.384940
vt 0.276415 0.261456
vt 0.343426 0.381389
vt 0.342467 0.384940
vt 0.301500 0.629633
vt 0.300854 0.631477
vt 0.219997 0.521245
vt 0.300854 0.631477
vt 0.218865 0.522322
vt 0.219997 0.521245
vt 0.342467 0.384940
vt 0.343426 0.381389
vt 0.458101 0.387983
vt 0.343426 0.381389
vt 0.458259 0.384581
vt 0.458101 0.387983
vt 0.391242 0.743349
vt 0.390873 0.745148
vt 0.301500 0.629633
vt 0.390873 0.745148
vt 0.300854 0.631477
vt 0.301500 0.629633
vt 0.458101 0.387983
vt 0.458259 0.384581
vt 0.521846 0.363921
vt 0.458259 0.384581
vt 0.521596 0.361177
vt 0.521846 0.363921
vt 0.465802 0.768581
vt 0.465752 0.770392
vt 0.391242 0.743349
vt 0.465752 0.770392
vt 0.390873 0.745148
vt 0.391242 0.743349
vt 0.521846 0.363921
vt 0.521596 0.361177
vt 0.599662 0.309337
vt 0.521596 0.361177
vt 0.599368 0.306910
vt 0.599662 0.309337
vt 0.540894 0.782158
vt 0.541037 0.783981
vt 0.465802 0.768581
vt 0.541037 0.783981
vt 0.465752 0.770392
vt 0.465802 0.768581
vt 0.599662 0.309337
vt 0.599368 0.306910
vt 0.664362 0.276387
vt 0.599368 0.306910
vt 0.664672 0.274448
vt 0.664362 0.276387
vt 0.611220 0.786804
vt 0.611714 0.788265
vt 0.540894 0.782158
vt 0.611714 0.788265
vt 0.541037 0.783981
vt 0.540894 0.782158
vt 0.664362 0.276387
vt 0.664672 0.274448
vt 0.728438 0.262326
vt 0.664672 0.274448
vt 0.729280 0.260851
vt 0.728438 0.262326
vt 0.694318 0.762828
vt 0.694760 0.763277
vt 0.611220 0.786804
vt 0.694760 0.763277
vt 0.611714 0.788265
vt 0.611220 0.786804
vt 0.728438 0.262326
vt 0.729280 0.260851
vt 0.775395 0.486955
vt 0.729280 0.260851
vt 0.775977 0.486757
vt 0.775395 0.486955
vt 0.775395 0.486955
vt 0.775977 0.486757
vt 0.811208 0.584271
vt 0.775977 0.486757
vt 0.811208 0.584023
vt 0.811208 0.584271
vt 0.793681 0.728614
vt 0.793681 0.728369
vt 0.694318 0.762828
vt 0.793681 0.728369
vt 0.694760 0.763277
vt 0.694318 0.762828
vt 0.811208 0.584271
vt 0.811208 0.584023
vt 0.863240 0.642217
vt 0.811208 0.584023
vt 0.863240 0.641970
vt 0.863240 0.642217
vt 0.851231 0.716487
vt 0.851231 0.716240
vt 0.793681 0.728614
vt 0.851231 0.716240
vt 0.793681 0.728369
vt 0.793681 0.728614
vt 0.863240 0.642217
vt 0.863240 0.641970
vt 0.893197 0.669168
vt 0.863240 0.641970
vt 0.893197 0.668922
vt 0.893197 0.669168
vt 0.882766 0.701663
vt 0.882766 0.701416
vt 0.851231 0.716487
vt 0.882766 0.701416
vt 0.851231 0.716240
vt 0.851231 0.716487
vt 0.893197 0.669168
vt 0.893197 0.668922
vt 0.882766 0.701663
vt 0.893197 0.668922
vt 0.882766 0.701416
vt 0.882766 0.701663
# num_uvs: 420

g def_surf_mat
s 1

usemtl def_surf_mat
f 1/1/1 2/2/2 3/3/3 
f 2/4/2 4/5/4 3/6/3 
f 4/7/4 2/8/2 5/9/5 
f 2/10/2 6/11/6 5/12/5 
f 3/13/3 4/14/4 7/15/7 
f 4/16/4 8/17/8 7/18/7 
f 8/19/8 4/20/4 9/21/9 
f 4/22/4 5/23/5 9/24/9 
f 3/25/3 10/26/10 1/27/1 
f 10/28/10 11/29/11 1/30/1 
f 7/31/7 12/32/12 3/33/3 
f 12/34/12 10/35/10 3/36/3 
f 10/37/10 13/38/13 11/39/11 
f 13/40/13 14/41/14 11/42/11 
f 12/43/12 15/44/15 10/45/10 
f 15/46/15 13/47/13 10/48/10 
f 13/49/13 16/50/16 14/51/14 
f 16/52/16 17/53/17 14/54/14 
f 15/55/15 18/56/18 13/57/13 
f 18/58/18 16/59/16 13/60/13 
f 16/61/16 19/62/19 17/63/17 
f 19/64/19 20/65/20 17/66/17 
f 18/67/18 21/68/21 16/69/16 
f 21/70/21 19/71/19 16/72/16 
f 19/73/19 22/74/22 20/75/20 
f 22/76/22 23/77/23 20/78/20 
f 21/79/21 24/80/24 19/81/19 
f 24/82/24 22/83/22 19/84/19 
f 22/85/22 25/86/25 23/87/23 
f 25/88/25 26/89/26 23/90/23 
f 24/91/24 27/92/27 22/93/22 
f 27/94/27 25/95/25 22/96/22 
f 25/97/25 28/98/28 26/99/26 
f 28/100/28 29/101/29 26/102/26 
f 27/103/27 30/104/30 25/105/25 
f 30/106/30 28/107/28 25/108/25 
f 30/109/30 31/110/31 28/111/28 
f 31/112/31 32/113/32 28/114/28 
f 31/115/31 33/116/33 32/117/32 
f 33/118/33 34/119/34 32/120/32 
f 33/121/33 35/122/35 34/123/34 
f 35/124/35 36/125/36 34/126/34 
f 37/127/37 38/128/38 39/129/39 
f 38/130/38 40/131/40 39/132/39 
f 37/133/37 39/134/39 41/135/41 
f 39/136/39 42/137/42 41/138/41 
f 39/139/39 40/140/40 43/141/43 
f 40/142/40 44/143/44 43/144/43 
f 39/145/39 43/146/43 42/147/42 
f 43/148/43 45/149/45 42/150/42 
f 46/151/46 40/152/40 47/153/47 
f 40/154/40 38/155/38 47/156/47 
f 48/157/48 44/158/44 46/159/46 
f 44/160/44 40/161/40 46/162/46 
f 49/163/49 46/164/46 50/165/50 
f 46/166/46 47/167/47 50/168/50 
f 51/169/51 48/170/48 49/171/49 
f 48/172/48 46/173/46 49/174/49 
f 52/175/52 49/176/49 53/177/53 
f 49/178/49 50/179/50 53/180/53 
f 54/181/54 51/182/51 52/183/52 
f 51/184/51 49/185/49 52/186/52 
f 55/187/55 52/188/52 56/189/56 
f 52/190/52 53/191/53 56/192/56 
f 57/193/57 54/194/54 55/195/55 
f 54/196/54 52/197/52 55/198/55 
f 58/199/58 55/200/55 59/201/59 
f 55/202/55 56/203/56 59/204/59 
f 60/205/60 57/206/57 58/207/58 
f 57/208/57 55/209/55 58/210/58 
f 61/211/61 58/212/58 62/213/62 
f 58/214/58 59/215/59 62/216/62 
f 63/217/63 60/218/60 61/219/61 
f 60/220/60 58/221/58 61/222/61 
f 64/223/64 61/224/61 65/225/65 
f 61/226/61 62/227/62 65/228/65 
f 66/229/66 63/230/63 64/231/64 
f 63/232/63 61/233/61 64/234/64 
f 67/235/67 66/236/66 68/237/68 
f 66/238/66 64/239/64 68/240/68 
f 69/241/69 67/242/67 70/243/70 
f 67/244/67 68/245/68 70/246/70 
f 71/247/71 69/248/69 72/249/72 
f 69/250/69 70/251/70 72/252/72 
f 37/253/37 2/254/2 38/255/38 
f 2/256/2 1/257/1 38/258/38 
f 38/259/38 1/260/1 47/261/47 
f 1/262/1 11/263/11 47/264/47 
f 44/265/44 7/266/7 43/267/43 
f 7/268/7 8/269/8 43/270/43 
f 48/271/48 12/272/12 44/273/44 
f 12/274/12 7/275/7 44/276/44 
f 45/277/45 9/278/9 42/279/42 
f 9/280/9 5/281/5 42/282/42 
f 43/283/43 8/284/8 45/285/45 
f 8/286/8 9/287/9 45/288/45 
f 42/289/42 5/290/5 41/291/41 
f 5/292/5 6/293/6 41/294/41 
f 41/295/41 6/296/6 37/297/37 
f 6/298/6 2/299/2 37/300/37 
f 47/301/47 11/302/11 50/303/50 
f 11/304/11 14/305/14 50/306/50 
f 51/307/51 15/308/15 48/309/48 
f 15/310/15 12/311/12 48/312/48 
f 50/313/50 14/314/14 53/315/53 
f 14/316/14 17/317/17 53/318/53 
f 54/319/54 18/320/18 51/321/51 
f 18/322/18 15/323/15 51/324/51 
f 53/325/53 17/326/17 56/327/56 
f 17/328/17 20/329/20 56/330/56 
f 57/331/57 21/332/21 54/333/54 
f 21/334/21 18/335/18 54/336/54 
f 56/337/56 20/338/20 59/339/59 
f 20/340/20 23/341/23 59/342/59 
f 60/343/60 24/344/24 57/345/57 
f 24/346/24 21/347/21 57/348/57 
f 59/349/59 23/350/23 62/351/62 
f 23/352/23 26/353/26 62/354/62 
f 63/355/63 27/356/27 60/357/60 
f 27/358/27 24/359/24 60/360/60 
f 62/361/62 26/362/26 65/363/65 
f 26/364/26 29/365/29 65/366/65 
f 66/367/66 30/368/30 63/369/63 
f 30/370/30 27/371/27 63/372/63 
f 65/373/65 29/374/29 64/375/64 
f 29/376/29 28/377/28 64/378/64 
f 64/379/64 28/380/28 68/381/68 
f 28/382/28 32/383/32 68/384/68 
f 67/385/67 31/386/31 66/387/66 
f 31/388/31 30/389/30 66/390/66 
f 68/391/68 32/392/32 70/393/70 
f 32/394/32 34/395/34 70/396/70 
f 69/397/69 33/398/33 67/399/67 
f 33/400/33 31/401/31 67/402/67 
f 70/403/70 34/404/34 72/405/72 
f 34/406/34 36/407/36 72/408/72 
f 71/409/71 35/410/35 69/411/69 
f 35/412/35 33/413/33 69/414/69 
f 72/415/72 36/416/36 71/417/71 
f 36/418/36 35/419/35 71/420/71 
# num_faces: 140

