# Wavefront OBJ file
# Creator: Ultimate Unwrap3D Pro v3.18
# Time: Fri Oct 09 13:42:53 2009
# num_vertices: 125
# num_vertex_normals: 125
# num_uvs: 438
# num_faces: 146
# num_groups: 1

mtllib steps_wall.mtl

v -0.000050 52.125793 -100.990646
v 0.000050 52.125793 100.990646
v 4.499249 52.125793 -100.990646
v 4.499348 52.125793 100.990646
v -0.000050 0.000099 -100.990646
v -0.000050 4.163795 -100.990646
v 10.910450 0.000099 -100.990646
v 10.910351 4.163795 -100.990646
v 0.000050 0.000000 100.990646
v -0.000050 0.000099 -100.990646
v 10.910450 0.000099 100.990646
v 10.910450 0.000099 -100.990646
v 0.000050 4.163795 100.990646
v 0.000050 0.000000 100.990646
v 10.910450 4.163795 100.990646
v 10.910450 0.000099 100.990646
v 10.910450 4.163795 100.990646
v 10.910351 4.163795 -100.990646
v 0.000050 7.576797 100.990646
v 9.769348 7.576797 100.990646
v 9.769249 7.577797 -100.990646
v -0.000050 7.577797 -100.990646
v 9.769348 7.576797 100.990646
v 9.769249 7.577797 -100.990646
v 0.000050 11.559799 100.990646
v 9.769348 11.559799 100.990646
v 9.769249 11.559799 -100.990646
v -0.000050 11.559799 -100.990646
v 9.769348 11.559799 100.990646
v 9.769249 11.559799 -100.990646
v 9.769249 15.541794 -100.990646
v -0.000050 15.541794 -100.990646
v 0.000050 38.582794 100.990646
v 0.000050 15.541794 100.990646
v 9.769348 38.582794 100.990646
v 9.769348 15.541794 100.990646
v 9.769249 38.582794 -100.990646
v -0.000050 38.582794 -100.990646
v 9.769348 38.582794 100.990646
v 9.769348 15.541794 100.990646
v 9.769249 38.582794 -100.990646
v 9.769249 15.541794 -100.990646
v 0.000050 43.417801 100.990646
v 11.254650 43.417801 100.990646
v 11.254551 43.417801 -100.990646
v -0.000050 43.417801 -100.990646
v 11.254650 43.417801 100.990646
v 11.254551 43.417801 -100.990646
v 0.000050 47.684799 100.990646
v 11.254650 47.684799 100.990646
v 11.254551 47.684799 -100.990646
v -0.000050 47.684799 -100.990646
v 11.254650 47.684799 100.990646
v 11.254551 47.684799 -100.990646
v 0.000050 50.528793 100.990646
v 10.753250 50.528793 100.990646
v 10.753151 50.529800 -100.990646
v -0.000050 50.529800 -100.990646
v 10.753250 50.528793 100.990646
v 10.753151 50.529800 -100.990646
v 10.625450 11.559799 100.990646
v 10.625351 11.559799 -100.990646
v 10.625351 15.541794 -100.990646
v 10.625450 15.541794 100.990646
v 0.000050 13.644798 100.990646
v 9.769348 13.644798 100.990646
v 11.122250 13.644798 100.990646
v 9.769348 13.644798 100.990646
v 11.122150 12.835800 -100.990646
v 0.000050 52.125793 100.990646
v 4.499348 52.125793 100.990646
v 4.499249 52.125793 -100.990646
v -0.000050 52.125793 -100.990646
v 10.753250 50.528793 100.990646
v 10.753151 50.529800 -100.990646
v -4.499249 52.125793 100.990646
v -4.499348 52.125793 -100.990646
v -10.910450 4.163795 -100.990646
v -10.910549 0.000099 -100.990646
v -10.910549 0.000099 -100.990646
v -10.910351 0.000099 100.990646
v -10.910351 0.000099 100.990646
v -10.910351 4.163795 100.990646
v -10.910450 4.163795 -100.990646
v -10.910351 4.163795 100.990646
v -9.769253 7.576797 100.990646
v -9.769352 7.577797 -100.990646
v -9.769253 7.576797 100.990646
v -9.769352 7.577797 -100.990646
v -9.769253 11.559799 100.990646
v -9.769352 11.559799 -100.990646
v -9.769253 11.559799 100.990646
v -9.769352 11.559799 -100.990646
v -9.769352 15.541794 -100.990646
v -9.769253 15.541794 100.990646
v -9.769253 38.582794 100.990646
v -9.769352 38.582794 -100.990646
v -9.769253 15.541794 100.990646
v -9.769253 38.582794 100.990646
v -9.769352 15.541794 -100.990646
v -9.769352 38.582794 -100.990646
v -11.254551 43.417801 100.990646
v -11.254650 43.417801 -100.990646
v -11.254551 43.417801 100.990646
v -11.254650 43.417801 -100.990646
v -11.254551 47.684799 100.990646
v -11.254650 47.684799 -100.990646
v -11.254551 47.684799 100.990646
v -11.254650 47.684799 -100.990646
v -10.753147 50.528793 100.990646
v -10.753254 50.529800 -100.990646
v -10.753147 50.528793 100.990646
v -10.753254 50.529800 -100.990646
v -10.625347 11.559799 100.990646
v -10.625454 11.559799 -100.990646
v -10.625454 15.541794 -100.990646
v -10.625347 15.541794 100.990646
v -9.769253 13.644798 100.990646
v -9.769253 13.644798 100.990646
v -11.122150 13.644798 100.990646
v -11.122250 12.835800 -100.990646
v -4.499249 52.125793 100.990646
v -4.499348 52.125793 -100.990646
v -10.753147 50.528793 100.990646
v -10.753254 50.529800 -100.990646
# num_vertices: 125

vn 0.000000 1.000000 0.000000
vn 0.000000 1.000000 0.000000
vn 0.124646 0.992201 0.000001
vn 0.124683 0.992197 -0.000000
vn 0.000000 0.000000 -1.000000
vn 0.000000 0.000000 -1.000000
vn 0.000000 0.000000 -1.000000
vn 0.000000 0.000000 -1.000000
vn 0.000000 -1.000000 -0.000000
vn 0.000003 -1.000000 -0.000000
vn 0.447217 -0.894426 -0.000000
vn 0.894431 -0.447205 -0.000000
vn 0.000000 0.000000 1.000000
vn 0.000000 0.000000 1.000000
vn 0.000000 0.000000 1.000000
vn 0.000000 0.000000 1.000000
vn 0.987018 0.160613 0.000000
vn 0.987020 0.160597 -0.000000
vn 0.000000 0.000000 1.000000
vn 0.000000 0.000000 1.000000
vn 0.000000 0.000000 -1.000000
vn 0.000000 0.000000 -1.000000
vn 0.994267 0.106929 0.000000
vn 0.976871 0.213829 0.000000
vn 0.000000 0.000000 1.000000
vn 0.000000 0.000000 1.000000
vn 0.000000 0.000000 -1.000000
vn 0.000000 0.000000 -1.000000
vn 0.408248 -0.816497 0.408248
vn 0.666667 -0.333333 -0.666667
vn 0.000000 0.000000 -1.000000
vn 0.000000 0.000000 -1.000000
vn 0.000000 0.000000 1.000000
vn 0.000000 0.000000 1.000000
vn 0.000000 0.000000 1.000000
vn 0.000000 0.000000 1.000000
vn 0.000000 0.000000 -1.000000
vn 0.000000 0.000000 -1.000000
vn 0.980259 -0.197716 -0.000000
vn 0.666667 0.333333 0.666667
vn 0.995102 -0.098858 -0.000000
vn 0.333333 0.666667 -0.666667
vn 0.000000 0.000000 1.000000
vn 0.000000 0.000000 1.000000
vn 0.000000 0.000000 -1.000000
vn 0.000000 0.000000 -1.000000
vn 0.995102 -0.098858 -0.000000
vn 0.980259 -0.197716 -0.000000
vn 0.000000 0.000000 1.000000
vn 0.000000 0.000000 1.000000
vn 0.000000 0.000000 -1.000000
vn 0.000000 0.000000 -1.000000
vn 0.993235 0.116122 -0.000000
vn 0.998314 0.058051 -0.000000
vn 0.000000 0.000000 1.000000
vn 0.000000 0.000000 1.000000
vn 0.000000 0.000000 -1.000000
vn 0.000000 0.000000 -1.000000
vn 0.984812 0.173624 0.000000
vn 0.984817 0.173594 -0.000000
vn 0.597122 -0.499924 0.627313
vn 0.341379 -0.865595 -0.366341
vn 0.536485 0.643946 -0.545452
vn 0.595638 0.743096 0.304998
vn 0.000000 0.000000 1.000000
vn 0.000000 0.000000 1.000000
vn 0.543049 0.006034 0.839680
vn 0.000000 0.000000 1.000000
vn 0.788795 -0.032873 -0.613776
vn 0.000000 0.000000 1.000000
vn 0.000000 0.000000 1.000000
vn 0.000000 0.000000 -1.000000
vn 0.000000 0.000000 -1.000000
vn 0.247348 0.968927 0.000002
vn 0.247274 0.968946 0.000005
vn -0.124646 0.992201 0.000001
vn -0.124608 0.992206 0.000000
vn 0.000000 0.000000 -1.000000
vn 0.000000 0.000000 -1.000000
vn -0.447221 -0.894423 0.000000
vn -0.894432 -0.447203 0.000001
vn 0.000000 0.000000 1.000000
vn 0.000000 0.000000 1.000000
vn -0.987018 0.160613 0.000001
vn -0.987015 0.160629 0.000000
vn 0.000000 0.000000 1.000000
vn 0.000000 0.000000 -1.000000
vn -0.976871 0.213828 0.000001
vn -0.994270 0.106900 0.000001
vn 0.000000 0.000000 1.000000
vn 0.000000 0.000000 -1.000000
vn -0.666667 -0.333333 0.666667
vn -0.408248 -0.816497 -0.408248
vn 0.000000 0.000000 -1.000000
vn 0.000000 0.000000 1.000000
vn 0.000000 0.000000 1.000000
vn 0.000000 0.000000 -1.000000
vn -0.408248 0.816497 0.408248
vn -0.995102 -0.098858 0.000000
vn -0.534523 0.267261 -0.801784
vn -0.980259 -0.197715 0.000000
vn 0.000000 0.000000 1.000000
vn 0.000000 0.000000 -1.000000
vn -0.980259 -0.197715 0.000000
vn -0.995102 -0.098858 0.000000
vn 0.000000 0.000000 1.000000
vn 0.000000 0.000000 -1.000000
vn -0.998312 0.058071 0.000000
vn -0.993235 0.116122 0.000001
vn 0.000000 0.000000 1.000000
vn 0.000000 0.000000 -1.000000
vn -0.984817 0.173594 0.000001
vn -0.984823 0.173563 0.000001
vn -0.369600 -0.847960 0.379947
vn -0.597402 -0.500158 -0.626860
vn -0.595541 0.742976 -0.305480
vn -0.379241 0.491350 0.784061
vn 0.000000 0.000000 1.000000
vn 0.000000 0.000000 1.000000
vn -0.788732 -0.032870 0.613858
vn -0.690310 -0.065677 -0.720527
vn 0.000000 0.000000 1.000000
vn 0.000000 0.000000 -1.000000
vn -0.247421 0.968908 0.000005
vn -0.247348 0.968927 0.000003
# num_vertex_normals: 125

vt 0.914071 0.515315
vt 0.041401 0.515314
vt 0.914071 0.452245
vt 0.041401 0.515314
vt 0.041401 0.452243
vt 0.914071 0.452245
vt 0.503373 0.052325
vt 0.503373 0.094281
vt 0.444840 0.052325
vt 0.503373 0.094281
vt 0.444840 0.094282
vt 0.444840 0.052325
vt 0.007639 0.095010
vt 0.938727 0.095011
vt 0.007639 0.095011
vt 0.938727 0.095011
vt 0.938727 0.095012
vt 0.007639 0.095011
vt 0.503373 0.094280
vt 0.503373 0.052324
vt 0.444840 0.094280
vt 0.503373 0.052324
vt 0.444840 0.052324
vt 0.444840 0.094280
vt 0.007639 0.095011
vt 0.938727 0.095012
vt 0.007639 0.159711
vt 0.938727 0.095012
vt 0.938727 0.159713
vt 0.007639 0.159711
vt 0.503373 0.162591
vt 0.503373 0.094280
vt 0.450962 0.162591
vt 0.503373 0.094280
vt 0.444840 0.094280
vt 0.450962 0.162591
vt 0.450962 0.162592
vt 0.444840 0.094282
vt 0.503373 0.162592
vt 0.444840 0.094282
vt 0.503373 0.094281
vt 0.503373 0.162592
vt 0.007639 0.212752
vt 0.007639 0.159711
vt 0.938727 0.212753
vt 0.007639 0.159711
vt 0.938727 0.159713
vt 0.938727 0.212753
vt 0.503373 0.270689
vt 0.503373 0.162591
vt 0.450962 0.270689
vt 0.503373 0.162591
vt 0.450962 0.162591
vt 0.450962 0.270689
vt 0.450962 0.270690
vt 0.450962 0.162592
vt 0.503373 0.270690
vt 0.450962 0.162592
vt 0.503373 0.162592
vt 0.503373 0.270690
vt 0.007639 0.274632
vt 0.007639 0.212752
vt 0.938727 0.274633
vt 0.007639 0.212752
vt 0.938727 0.212753
vt 0.938727 0.274633
vt 0.450962 0.334526
vt 0.450962 0.270690
vt 0.503373 0.334526
vt 0.450962 0.270690
vt 0.503373 0.270690
vt 0.503373 0.334526
vt 0.503373 0.693761
vt 0.503373 0.334524
vt 0.450962 0.693761
vt 0.503373 0.334524
vt 0.450962 0.334524
vt 0.450962 0.693761
vt 0.450962 0.693763
vt 0.450962 0.334526
vt 0.503373 0.693763
vt 0.450962 0.334526
vt 0.503373 0.334526
vt 0.503373 0.693763
vt 0.007639 0.694534
vt 0.007639 0.336512
vt 0.938727 0.694536
vt 0.007639 0.336512
vt 0.938727 0.336514
vt 0.938727 0.694536
vt 0.503373 0.774470
vt 0.503373 0.693761
vt 0.442993 0.774470
vt 0.503373 0.693761
vt 0.450962 0.693761
vt 0.442993 0.774470
vt 0.442993 0.774472
vt 0.450962 0.693763
vt 0.503373 0.774471
vt 0.450962 0.693763
vt 0.503373 0.693763
vt 0.503373 0.774471
vt 0.007639 0.769675
vt 0.007639 0.694534
vt 0.938727 0.769677
vt 0.007639 0.694534
vt 0.938727 0.694536
vt 0.938727 0.769677
vt 0.503373 0.845684
vt 0.503373 0.774470
vt 0.442993 0.845685
vt 0.503373 0.774470
vt 0.442993 0.774470
vt 0.442993 0.845685
vt 0.442993 0.845685
vt 0.442993 0.774472
vt 0.503373 0.845685
vt 0.442993 0.774472
vt 0.503373 0.774471
vt 0.503373 0.845685
vt 0.007639 0.835977
vt 0.007639 0.769675
vt 0.938727 0.835978
vt 0.007639 0.769675
vt 0.938727 0.769677
vt 0.938727 0.835978
vt 0.503373 0.890640
vt 0.503373 0.845684
vt 0.445683 0.890640
vt 0.503373 0.845684
vt 0.442993 0.845685
vt 0.445683 0.890640
vt 0.445683 0.890642
vt 0.442993 0.845685
vt 0.503373 0.890641
vt 0.442993 0.845685
vt 0.503373 0.845685
vt 0.503373 0.890641
vt 0.007639 0.880177
vt 0.007639 0.835977
vt 0.938727 0.880178
vt 0.007639 0.835977
vt 0.938727 0.835978
vt 0.938727 0.880178
vt 0.007639 0.274632
vt 0.007639 0.274632
vt 0.938727 0.274634
vt 0.007639 0.274632
vt 0.938727 0.274633
vt 0.938727 0.274634
vt 0.938727 0.336514
vt 0.938727 0.336514
vt 0.007639 0.336512
vt 0.938727 0.336514
vt 0.007639 0.336512
vt 0.007639 0.336512
vt 0.503373 0.299619
vt 0.503373 0.270689
vt 0.450962 0.299619
vt 0.503373 0.270689
vt 0.450962 0.270689
vt 0.450962 0.299619
vt 0.503373 0.299619
vt 0.450962 0.299619
vt 0.503373 0.334524
vt 0.450962 0.299619
vt 0.450962 0.334524
vt 0.503373 0.334524
vt 0.007639 0.307031
vt 0.007639 0.307031
vt 0.007639 0.274632
vt 0.007639 0.307031
vt 0.007639 0.274632
vt 0.007639 0.274632
vt 0.938727 0.274634
vt 0.938727 0.274633
vt 0.938727 0.294457
vt 0.938727 0.274633
vt 0.938727 0.336514
vt 0.938727 0.294457
vt 0.938727 0.294457
vt 0.938727 0.336514
vt 0.938727 0.336514
vt 0.007639 0.307031
vt 0.007639 0.274632
vt 0.938727 0.294457
vt 0.007639 0.274632
vt 0.938727 0.274634
vt 0.938727 0.294457
vt 0.007639 0.307031
vt 0.938727 0.294457
vt 0.007639 0.336512
vt 0.938727 0.294457
vt 0.938727 0.336514
vt 0.007639 0.336512
vt 0.007639 0.336512
vt 0.007639 0.336512
vt 0.007639 0.307031
vt 0.007639 0.336512
vt 0.007639 0.307031
vt 0.007639 0.307031
vt 0.503373 0.917292
vt 0.503373 0.890640
vt 0.479235 0.917292
vt 0.503373 0.890640
vt 0.445683 0.890640
vt 0.479235 0.917292
vt 0.479235 0.917292
vt 0.445683 0.890642
vt 0.503373 0.917292
vt 0.445683 0.890642
vt 0.503373 0.890641
vt 0.503373 0.917292
vt 0.041401 0.452243
vt 0.041401 0.364577
vt 0.914071 0.452245
vt 0.041401 0.364577
vt 0.914071 0.364578
vt 0.914071 0.452245
vt 0.041401 0.515314
vt 0.914071 0.515315
vt 0.041401 0.578385
vt 0.914071 0.515315
vt 0.914071 0.578387
vt 0.041401 0.578385
vt 0.503373 0.094281
vt 0.503373 0.052325
vt 0.444840 0.094282
vt 0.503373 0.052325
vt 0.444840 0.052325
vt 0.444840 0.094282
vt 0.938727 0.095011
vt 0.007639 0.095010
vt 0.938727 0.095012
vt 0.007639 0.095010
vt 0.007639 0.095011
vt 0.938727 0.095012
vt 0.503373 0.052324
vt 0.503373 0.094280
vt 0.444840 0.052324
vt 0.503373 0.094280
vt 0.444840 0.094280
vt 0.444840 0.052324
vt 0.938727 0.095012
vt 0.007639 0.095011
vt 0.938727 0.159713
vt 0.007639 0.095011
vt 0.007639 0.159711
vt 0.938727 0.159713
vt 0.503373 0.094280
vt 0.503373 0.162591
vt 0.444840 0.094280
vt 0.503373 0.162591
vt 0.450962 0.162591
vt 0.444840 0.094280
vt 0.444840 0.094282
vt 0.450962 0.162592
vt 0.503373 0.094281
vt 0.450962 0.162592
vt 0.503373 0.162592
vt 0.503373 0.094281
vt 0.007639 0.159711
vt 0.007639 0.212752
vt 0.938727 0.159713
vt 0.007639 0.212752
vt 0.938727 0.212753
vt 0.938727 0.159713
vt 0.503373 0.162591
vt 0.503373 0.270689
vt 0.450962 0.162591
vt 0.503373 0.270689
vt 0.450962 0.270689
vt 0.450962 0.162591
vt 0.450962 0.162592
vt 0.450962 0.270690
vt 0.503373 0.162592
vt 0.450962 0.270690
vt 0.503373 0.270690
vt 0.503373 0.162592
vt 0.007639 0.212752
vt 0.007639 0.274632
vt 0.938727 0.212753
vt 0.007639 0.274632
vt 0.938727 0.274633
vt 0.938727 0.212753
vt 0.450962 0.270690
vt 0.450962 0.334526
vt 0.503373 0.270690
vt 0.450962 0.334526
vt 0.503373 0.334526
vt 0.503373 0.270690
vt 0.503373 0.334524
vt 0.503373 0.693761
vt 0.450962 0.334524
vt 0.503373 0.693761
vt 0.450962 0.693761
vt 0.450962 0.334524
vt 0.450962 0.334526
vt 0.450962 0.693763
vt 0.503373 0.334526
vt 0.450962 0.693763
vt 0.503373 0.693763
vt 0.503373 0.334526
vt 0.007639 0.336512
vt 0.007639 0.694534
vt 0.938727 0.336514
vt 0.007639 0.694534
vt 0.938727 0.694536
vt 0.938727 0.336514
vt 0.503373 0.693761
vt 0.503373 0.774470
vt 0.450962 0.693761
vt 0.503373 0.774470
vt 0.442993 0.774470
vt 0.450962 0.693761
vt 0.450962 0.693763
vt 0.442993 0.774472
vt 0.503373 0.693763
vt 0.442993 0.774472
vt 0.503373 0.774471
vt 0.503373 0.693763
vt 0.007639 0.694534
vt 0.007639 0.769675
vt 0.938727 0.694536
vt 0.007639 0.769675
vt 0.938727 0.769677
vt 0.938727 0.694536
vt 0.503373 0.774470
vt 0.503373 0.845684
vt 0.442993 0.774470
vt 0.503373 0.845684
vt 0.442993 0.845685
vt 0.442993 0.774470
vt 0.442993 0.774472
vt 0.442993 0.845685
vt 0.503373 0.774471
vt 0.442993 0.845685
vt 0.503373 0.845685
vt 0.503373 0.774471
vt 0.007639 0.769675
vt 0.007639 0.835977
vt 0.938727 0.769677
vt 0.007639 0.835977
vt 0.938727 0.835978
vt 0.938727 0.769677
vt 0.503373 0.845684
vt 0.503373 0.890640
vt 0.442993 0.845685
vt 0.503373 0.890640
vt 0.445683 0.890640
vt 0.442993 0.845685
vt 0.442993 0.845685
vt 0.445683 0.890642
vt 0.503373 0.845685
vt 0.445683 0.890642
vt 0.503373 0.890641
vt 0.503373 0.845685
vt 0.007639 0.835977
vt 0.007639 0.880177
vt 0.938727 0.835978
vt 0.007639 0.880177
vt 0.938727 0.880178
vt 0.938727 0.835978
vt 0.007639 0.274632
vt 0.007639 0.274632
vt 0.938727 0.274633
vt 0.007639 0.274632
vt 0.938727 0.274634
vt 0.938727 0.274633
vt 0.938727 0.336514
vt 0.938727 0.336514
vt 0.007639 0.336512
vt 0.938727 0.336514
vt 0.007639 0.336512
vt 0.007639 0.336512
vt 0.503373 0.270689
vt 0.503373 0.299619
vt 0.450962 0.270689
vt 0.503373 0.299619
vt 0.450962 0.299619
vt 0.450962 0.270689
vt 0.450962 0.299619
vt 0.503373 0.299619
vt 0.450962 0.334524
vt 0.503373 0.299619
vt 0.503373 0.334524
vt 0.450962 0.334524
vt 0.007639 0.307031
vt 0.007639 0.307031
vt 0.007639 0.274632
vt 0.007639 0.307031
vt 0.007639 0.274632
vt 0.007639 0.274632
vt 0.938727 0.274633
vt 0.938727 0.274634
vt 0.938727 0.336514
vt 0.938727 0.274634
vt 0.938727 0.294457
vt 0.938727 0.336514
vt 0.938727 0.336514
vt 0.938727 0.294457
vt 0.938727 0.336514
vt 0.007639 0.274632
vt 0.007639 0.307031
vt 0.938727 0.274634
vt 0.007639 0.307031
vt 0.938727 0.294457
vt 0.938727 0.274634
vt 0.938727 0.294457
vt 0.007639 0.307031
vt 0.938727 0.336514
vt 0.007639 0.307031
vt 0.007639 0.336512
vt 0.938727 0.336514
vt 0.007639 0.336512
vt 0.007639 0.336512
vt 0.007639 0.307031
vt 0.007639 0.336512
vt 0.007639 0.307031
vt 0.007639 0.307031
vt 0.503373 0.890640
vt 0.503373 0.917292
vt 0.445683 0.890640
vt 0.503373 0.917292
vt 0.479235 0.917292
vt 0.445683 0.890640
vt 0.445683 0.890642
vt 0.479235 0.917292
vt 0.503373 0.890641
vt 0.479235 0.917292
vt 0.503373 0.917292
vt 0.503373 0.890641
vt 0.041401 0.666052
vt 0.041401 0.578385
vt 0.914071 0.666053
vt 0.041401 0.578385
vt 0.914071 0.578387
vt 0.914071 0.666053
# num_uvs: 438

g material40
s 1

usemtl material40
f 1/1/1 2/2/2 3/3/3 
f 2/4/2 4/5/4 3/6/3 
f 5/7/5 6/8/6 7/9/7 
f 6/10/6 8/11/8 7/12/7 
f 9/13/9 10/14/10 11/15/11 
f 10/16/10 12/17/12 11/18/11 
f 13/19/13 14/20/14 15/21/15 
f 14/22/14 16/23/16 15/24/15 
f 11/25/11 12/26/12 17/27/17 
f 12/28/12 18/29/18 17/30/17 
f 19/31/19 13/32/13 20/33/20 
f 13/34/13 15/35/15 20/36/20 
f 21/37/21 8/38/8 22/39/22 
f 8/40/8 6/41/6 22/42/22 
f 23/43/23 17/44/17 24/45/24 
f 17/46/17 18/47/18 24/48/24 
f 25/49/25 19/50/19 26/51/26 
f 19/52/19 20/53/20 26/54/26 
f 27/55/27 21/56/21 28/57/28 
f 21/58/21 22/59/22 28/60/28 
f 29/61/29 23/62/23 30/63/30 
f 23/64/23 24/65/24 30/66/30 
f 31/67/31 27/68/27 32/69/32 
f 27/70/27 28/71/28 32/72/32 
f 33/73/33 34/74/34 35/75/35 
f 34/76/34 36/77/36 35/78/35 
f 37/79/37 31/80/31 38/81/38 
f 31/82/31 32/83/32 38/84/38 
f 39/85/39 40/86/40 41/87/41 
f 40/88/40 42/89/42 41/90/41 
f 43/91/43 33/92/33 44/93/44 
f 33/94/33 35/95/35 44/96/44 
f 45/97/45 37/98/37 46/99/46 
f 37/100/37 38/101/38 46/102/46 
f 47/103/47 39/104/39 48/105/48 
f 39/106/39 41/107/41 48/108/48 
f 49/109/49 43/110/43 50/111/50 
f 43/112/43 44/113/44 50/114/50 
f 51/115/51 45/116/45 52/117/52 
f 45/118/45 46/119/46 52/120/52 
f 53/121/53 47/122/47 54/123/54 
f 47/124/47 48/125/48 54/126/54 
f 55/127/55 49/128/49 56/129/56 
f 49/130/49 50/131/50 56/132/56 
f 57/133/57 51/134/51 58/135/58 
f 51/136/51 52/137/52 58/138/58 
f 59/139/59 53/140/53 60/141/60 
f 53/142/53 54/143/54 60/144/60 
f 61/145/61 29/146/29 62/147/62 
f 29/148/29 30/149/30 62/150/62 
f 63/151/63 42/152/42 64/153/64 
f 42/154/42 40/155/40 64/156/64 
f 65/157/65 25/158/25 66/159/66 
f 25/160/25 26/161/26 66/162/66 
f 65/163/65 66/164/66 34/165/34 
f 66/166/66 36/167/36 34/168/34 
f 67/169/67 68/170/68 61/171/61 
f 68/172/68 29/173/29 61/174/61 
f 62/175/62 30/176/30 69/177/69 
f 30/178/30 42/179/42 69/180/69 
f 69/181/69 42/182/42 63/183/63 
f 67/184/67 61/185/61 69/186/69 
f 61/187/61 62/188/62 69/189/69 
f 67/190/67 69/191/69 64/192/64 
f 69/193/69 63/194/63 64/195/64 
f 64/196/64 40/197/40 67/198/67 
f 40/199/40 68/200/68 67/201/67 
f 70/202/70 55/203/55 71/204/71 
f 55/205/55 56/206/56 71/207/71 
f 72/208/72 57/209/57 73/210/73 
f 57/211/57 58/212/58 73/213/73 
f 4/214/4 74/215/74 3/216/3 
f 74/217/74 75/218/75 3/219/3 
f 2/220/2 1/221/1 76/222/76 
f 1/223/1 77/224/77 76/225/76 
f 6/226/6 5/227/5 78/228/78 
f 5/229/5 79/230/79 78/231/78 
f 10/232/10 9/233/9 80/234/80 
f 9/235/9 81/236/81 80/237/80 
f 14/238/14 13/239/13 82/240/82 
f 13/241/13 83/242/83 82/243/82 
f 80/244/80 81/245/81 84/246/84 
f 81/247/81 85/248/85 84/249/84 
f 13/250/13 19/251/19 83/252/83 
f 19/253/19 86/254/86 83/255/83 
f 78/256/78 87/257/87 6/258/6 
f 87/259/87 22/260/22 6/261/6 
f 85/262/85 88/263/88 84/264/84 
f 88/265/88 89/266/89 84/267/84 
f 19/268/19 25/269/25 86/270/86 
f 25/271/25 90/272/90 86/273/86 
f 87/274/87 91/275/91 22/276/22 
f 91/277/91 28/278/28 22/279/22 
f 88/280/88 92/281/92 89/282/89 
f 92/283/92 93/284/93 89/285/89 
f 91/286/91 94/287/94 28/288/28 
f 94/289/94 32/290/32 28/291/28 
f 34/292/34 33/293/33 95/294/95 
f 33/295/33 96/296/96 95/297/95 
f 94/298/94 97/299/97 32/300/32 
f 97/301/97 38/302/38 32/303/32 
f 98/304/98 99/305/99 100/306/100 
f 99/307/99 101/308/101 100/309/100 
f 33/310/33 43/311/43 96/312/96 
f 43/313/43 102/314/102 96/315/96 
f 97/316/97 103/317/103 38/318/38 
f 103/319/103 46/320/46 38/321/38 
f 99/322/99 104/323/104 101/324/101 
f 104/325/104 105/326/105 101/327/101 
f 43/328/43 49/329/49 102/330/102 
f 49/331/49 106/332/106 102/333/102 
f 103/334/103 107/335/107 46/336/46 
f 107/337/107 52/338/52 46/339/46 
f 104/340/104 108/341/108 105/342/105 
f 108/343/108 109/344/109 105/345/105 
f 49/346/49 55/347/55 106/348/106 
f 55/349/55 110/350/110 106/351/106 
f 107/352/107 111/353/111 52/354/52 
f 111/355/111 58/356/58 52/357/52 
f 108/358/108 112/359/112 109/360/109 
f 112/361/112 113/362/113 109/363/109 
f 92/364/92 114/365/114 93/366/93 
f 114/367/114 115/368/115 93/369/93 
f 100/370/100 116/371/116 98/372/98 
f 116/373/116 117/374/117 98/375/98 
f 25/376/25 65/377/65 90/378/90 
f 65/379/65 118/380/118 90/381/90 
f 118/382/118 65/383/65 95/384/95 
f 65/385/65 34/386/34 95/387/95 
f 119/388/119 120/389/120 92/390/92 
f 120/391/120 114/392/114 92/393/92 
f 93/394/93 115/395/115 100/396/100 
f 115/397/115 121/398/121 100/399/100 
f 100/400/100 121/401/121 116/402/116 
f 114/403/114 120/404/120 115/405/115 
f 120/406/120 121/407/121 115/408/115 
f 121/409/121 120/410/120 116/411/116 
f 120/412/120 117/413/117 116/414/116 
f 98/415/98 117/416/117 119/417/119 
f 117/418/117 120/419/120 119/420/119 
f 55/421/55 70/422/70 110/423/110 
f 70/424/70 122/425/122 110/426/110 
f 111/427/111 123/428/123 58/429/58 
f 123/430/123 73/431/73 58/432/58 
f 124/433/124 76/434/76 125/435/125 
f 76/436/76 77/437/77 125/438/125 
# num_faces: 146

