# This file uses centimeters as units for non-parametric coordinates.
# UVs by headus UVLayout v2.08.00 2012/05/02 06:40:44

mtllib tmp592.mtl
g default
v 2.724763 4.053667 4.044402
v 2.675295 4.157713 -4.063417
v 5.151056 5.207233 4.044402
v 5.101588 5.311280 -4.063417
v 2.747236 4.191917 -4.063417
v 2.796704 4.087871 4.044402
v 5.112558 5.188930 4.044402
v 5.063090 5.292976 -4.063417
v 5.143143 5.223877 3.990096
v 5.104646 5.205573 3.990096
v 2.782200 4.118378 3.944861
v 2.716850 4.070310 3.990096
v 5.101588 5.311280 -3.982374
v 5.063090 5.292976 -3.982374
v 2.747236 4.191917 -3.982374
v 2.675295 4.157713 -3.982374
v 2.738440 4.060169 4.044402
v 2.743948 4.062788 4.044402
v 5.101588 5.311280 2.331258
v 5.063090 5.292976 2.331258
v 2.747236 4.191917 2.331258
v 2.675295 4.157713 2.331258
v 2.675295 4.157713 3.802941
v 5.052119 5.415326 3.365417
v 5.013622 5.397023 3.365417
v -2.686561 0.062156 4.063417
v 2.686561 0.062156 4.063417
v -2.686561 4.190595 4.063417
v 2.686561 4.190595 4.063417
v -2.686561 4.190595 -4.063417
v 2.686561 4.190595 -4.063417
v -2.686561 0.062156 -4.063417
v 2.686561 0.062156 -4.063417
v 0.000000 4.190595 4.063417
v 0.000000 4.190595 -4.063417
v 0.000000 0.062156 -4.063417
v 0.000000 0.062156 4.063417
v 2.686561 0.107795 4.063417
v 0.000000 0.107795 4.063417
v -2.686561 0.107795 4.063417
v -2.686561 0.107795 -4.063417
v 0.000000 0.107795 -4.063417
v 2.686561 0.107795 -4.063417
v 2.686561 4.110697 4.063417
v 0.000000 4.110697 4.063417
v -2.686561 4.110697 4.063417
v -2.686561 4.110697 -4.063417
v 0.000000 4.110697 -4.063417
v 2.686561 4.110697 -4.063417
v 2.606904 4.110697 4.063417
v 2.606904 0.107795 4.063417
v 2.606904 0.062156 4.063417
v 2.606904 0.062156 -4.063417
v 2.606904 0.107795 -4.063417
v 2.606904 4.110697 -4.063417
v 2.606904 4.190595 -4.063417
v 2.606904 4.190595 4.063417
v -2.567192 4.110697 4.063417
v -2.567192 0.107795 4.063417
v -2.567192 0.062156 4.063417
v -2.567192 0.062156 -4.063417
v -2.567192 0.107795 -4.063417
v -2.567192 4.110697 -4.063417
v -2.567192 4.190595 -4.063417
v -2.567192 4.190595 4.063417
v 2.686561 4.190595 4.004803
v 2.686561 4.110697 4.004803
v 2.686561 0.107795 4.004803
v 2.686561 0.062156 4.004803
v 2.606904 0.062156 4.004803
v 0.000000 0.062156 4.004803
v -2.567192 0.062156 4.004803
v -2.686561 0.062156 4.004803
v -2.686561 0.107795 4.004803
v -2.686561 4.110697 4.004803
v -2.686561 4.190595 4.004803
v 2.686561 4.190595 -4.014513
v 2.686561 4.110697 -4.014513
v 2.686561 0.107795 -4.014513
v 2.686561 0.062156 -4.014513
v 2.606904 0.062156 -4.014513
v 0.000000 0.062156 -4.014513
v -2.567192 0.062156 -4.014513
v -2.686561 0.062156 -4.014513
v -2.686561 0.107795 -4.014513
v -2.686561 4.110697 -4.014513
v -2.686561 4.190595 -4.014513
v -2.686272 4.194181 4.063417
v -2.686272 4.194181 -4.063417
v -0.034412 3.763772 3.950605
v -0.034412 3.763772 -4.063417
v -2.568445 4.175057 -4.063417
v -2.568445 4.175057 4.063417
v -2.686272 4.194181 4.004803
v -2.568445 4.175057 4.004803
v -0.034412 3.763772 3.891992
v -2.686272 4.194181 -4.014513
v -2.568445 4.175057 -4.014513
v 0.002307 3.990009 -3.988241
v -1.154581 4.177777 -3.988241
v -0.071132 3.537536 -2.014977
# 113 texture coords
vt 0.836133 0.005432
vt 0.989996 0.011628
vt 0.832219 0.486488
vt 0.986174 0.487649
vt 0.835097 0.107403
vt 0.988994 0.108568
vt 0.835337 0.045046
vt 0.415370 0.251205
vt 0.411099 0.739120
vt 0.411074 0.741857
vt 0.415395 0.248470
vt 0.408990 0.982178
vt 0.417497 0.008149
vt 0.565482 0.983545
vt 0.567599 0.743225
vt 0.567617 0.740485
vt 0.571886 0.252570
vt 0.571918 0.249826
vt 0.573992 0.009503
vt 0.254881 0.980855
vt 0.256933 0.740527
vt 0.256963 0.737781
vt 0.261240 0.249857
vt 0.261256 0.247113
vt 0.263387 0.006790
vt 0.815496 0.739124
vt 0.575174 0.737040
vt 0.572435 0.737009
vt 0.567649 0.736965
vt 0.411131 0.735601
vt 0.256996 0.734256
vt 0.249819 0.734196
vt 0.247077 0.734180
vt 0.006759 0.732053
vt 0.819711 0.257687
vt 0.579386 0.255569
vt 0.576644 0.255551
vt 0.571856 0.255510
vt 0.415343 0.254141
vt 0.261217 0.252798
vt 0.254052 0.252737
vt 0.251311 0.252709
vt 0.010983 0.250617
vt 0.833974 0.499223
vt 0.840356 0.980973
vt 0.924125 0.977644
vt 0.993555 0.108633
vt 0.990958 0.487687
vt 0.986138 0.492524
vt 0.832183 0.491361
vt 0.829658 0.486472
vt 0.832536 0.107428
vt 0.994478 0.008895
vt 0.996333 0.020436
vt 0.832776 0.044975
vt 0.990921 0.492559
vt 0.829623 0.491343
vt 0.836192 0.001982
vt 0.990078 0.005305
vt 0.833572 0.005380
vt 0.993548 0.005425
vt 0.993914 0.005438
vt 0.994823 0.005471
vt 0.833633 0.001936
vt 0.988153 0.503720
vt 0.994766 0.858286
vt 0.833893 0.495644
vt 0.988114 0.500141
vt 0.994255 0.981174
vt 0.993278 0.996801
vt 0.840001 0.983278
vt 0.833068 0.980824
vt 0.826795 0.499373
vt 0.826718 0.495796
vt 0.833048 0.983732
vt 0.579410 0.252627
vt 0.819733 0.254759
vt 0.824509 0.257722
vt 0.820293 0.739174
vt 0.815462 0.742632
vt 0.575140 0.740568
vt 0.576670 0.252614
vt 0.572400 0.740527
vt 0.824529 0.254787
vt 0.820255 0.742692
vt 0.576706 0.249872
vt 0.572389 0.743265
vt 0.578768 0.009548
vt 0.570256 0.983584
vt 0.574042 0.004705
vt 0.578822 0.004753
vt 0.570227 0.988378
vt 0.565448 0.988341
vt 0.254073 0.249798
vt 0.254085 0.247054
vt 0.251336 0.249765
vt 0.249759 0.740464
vt 0.249793 0.737719
vt 0.247052 0.737708
vt 0.417540 0.003350
vt 0.408948 0.986976
vt 0.263423 0.001993
vt 0.256228 0.006731
vt 0.011014 0.247691
vt 0.254832 0.985654
vt 0.247724 0.980787
vt 0.006730 0.735563
vt 0.001963 0.732018
vt 0.006184 0.250566
vt 0.256260 0.001936
vt 0.006219 0.247631
vt 0.247669 0.985582
vt 0.001936 0.735536
vn 0.429384 -0.903122 0.000000
vn 0.429387 -0.903121 0.000000
vn 0.429387 -0.903121 0.000000
vn 0.429384 -0.903122 0.000000
vn 0.429384 -0.903122 0.000000
vn 0.429384 -0.903122 0.000000
vn 0.429384 -0.903122 0.000000
vn 0.429384 -0.903122 0.000000
vn 0.406613 -0.855220 -0.321348
vn 0.406608 -0.855219 -0.321357
vn 0.406609 -0.855220 -0.321353
vn 0.406614 -0.855219 -0.321350
vn 0.406608 -0.855219 -0.321357
vn 0.438510 -0.898392 -0.024513
vn 0.406608 -0.855220 -0.321355
vn 0.406608 -0.855220 -0.321355
vn 0.406608 -0.855220 -0.321355
vn 0.041953 -0.996462 -0.072823
vn 0.429331 -0.903011 0.015677
vn 0.435502 -0.900184 0.002423
vn 0.432703 -0.901535 0.001791
vn 0.341279 -0.939896 -0.011156
vn 0.428657 -0.901588 -0.058240
vn 0.458815 -0.887614 -0.040391
vn 0.008146 -0.998750 -0.049310
vn 0.000000 0.000000 1.000000
vn 0.000000 0.000000 1.000000
vn 0.000000 0.000000 1.000000
vn 0.000000 0.000000 1.000000
vn 0.000000 0.000000 -1.000000
vn 0.000000 0.000000 -1.000000
vn 0.000000 0.000000 -1.000000
vn 0.000000 0.000000 -1.000000
vn 0.000000 -1.000000 0.000000
vn 0.000000 -1.000000 0.000000
vn 0.000000 -1.000000 0.000000
vn 0.000000 -1.000000 0.000000
vn 1.000000 0.000000 0.000000
vn 1.000000 0.000000 0.000000
vn 1.000000 0.000000 0.000000
vn 1.000000 0.000000 0.000000
vn -1.000000 0.000000 0.000000
vn -1.000000 0.000000 0.000000
vn -1.000000 0.000000 0.000000
vn -1.000000 0.000000 0.000000
vn 0.000000 0.000000 -1.000000
vn 0.000000 0.000000 -1.000000
vn 0.000000 0.000000 -1.000000
vn 0.000000 0.000000 -1.000000
vn 0.000000 -1.000000 0.000000
vn 0.000000 -1.000000 0.000000
vn 0.000000 -1.000000 0.000000
vn 0.000000 -1.000000 0.000000
vn 0.000000 0.000000 1.000000
vn 0.000000 0.000000 1.000000
vn 0.000000 0.000000 1.000000
vn 0.000000 0.000000 1.000000
vn 0.000000 0.000000 1.000000
vn 0.000000 0.000000 1.000000
vn 0.000000 0.000000 1.000000
vn 0.000000 0.000000 1.000000
vn -1.000000 0.000000 0.000000
vn -1.000000 0.000000 0.000000
vn 0.000000 0.000000 -1.000000
vn 0.000000 0.000000 -1.000000
vn 0.000000 0.000000 -1.000000
vn 0.000000 0.000000 -1.000000
vn 1.000000 0.000000 0.000000
vn 1.000000 0.000000 0.000000
vn 0.000000 0.000000 1.000000
vn 0.000000 0.000000 1.000000
vn 0.000000 0.000000 1.000000
vn 0.000000 0.000000 1.000000
vn -1.000000 0.000000 0.000000
vn -1.000000 0.000000 0.000000
vn 0.000000 0.000000 -1.000000
vn 0.000000 0.000000 -1.000000
vn 0.000000 0.000000 -1.000000
vn 0.000000 0.000000 -1.000000
vn 1.000000 0.000000 0.000000
vn 1.000000 0.000000 0.000000
vn 0.000000 0.000000 1.000000
vn 0.000000 0.000000 1.000000
vn 0.000000 0.000000 1.000000
vn 0.000000 -1.000000 0.000000
vn 0.000000 -1.000000 0.000000
vn 0.000000 0.000000 -1.000000
vn 0.000000 0.000000 -1.000000
vn 0.000000 0.000000 -1.000000
vn 0.000000 0.000000 -1.000000
vn 0.000000 0.000000 1.000000
vn 1.000000 0.000000 0.000000
vn 1.000000 0.000000 0.000000
vn 1.000000 0.000000 0.000000
vn 1.000000 0.000000 0.000000
vn 1.000000 0.000000 0.000000
vn 1.000000 0.000000 0.000000
vn 1.000000 0.000000 0.000000
vn 1.000000 0.000000 0.000000
vn 0.000000 -1.000000 0.000000
vn 0.000000 -1.000000 0.000000
vn 0.000000 -1.000000 0.000000
vn 0.000000 -1.000000 0.000000
vn 0.000000 -1.000000 0.000000
vn 0.000000 -1.000000 0.000000
vn 0.000000 -1.000000 0.000000
vn 0.000000 -1.000000 0.000000
vn 0.000000 -1.000000 0.000000
vn 0.000000 -1.000000 0.000000
vn -1.000000 0.000000 0.000000
vn -1.000000 0.000000 0.000000
vn -1.000000 0.000000 0.000000
vn -1.000000 0.000000 0.000000
vn -1.000000 0.000000 0.000000
vn -1.000000 0.000000 0.000000
vn -1.000000 0.000000 0.000000
vn -1.000000 0.000000 0.000000
vn 0.192433 0.981215 -0.013669
vn 0.192821 0.981104 -0.015978
vn 0.154937 0.980699 -0.119262
vn 0.048513 0.374493 -0.925960
vn 0.050291 0.385085 -0.921510
vn 0.160210 0.987083 0.000000
vn 0.160210 0.987083 0.000000
vn 0.160210 0.987083 0.000000
vn 0.160209 0.987083 0.000000
vn 0.192725 0.981222 0.007838
vn 0.160210 0.987083 0.000000
vn 0.160209 0.987083 0.000000
vn 0.194410 0.980886 0.008245
vn 0.156053 0.961481 0.226277
vn 0.194662 0.980835 0.008306
s 1
g cardboard_box
usemtl initialShadingGroup
f 15/4/1 16/48/2 2/56/3 5/49/4
f 13/51/5 14/3/6 8/50/7 4/57/8
f 14/3/6 15/4/1 5/49/4 8/50/7
f 3/64/9 7/58/10 10/1/11 9/60/12
f 7/58/10 6/59/13 11/2/14 10/1/11
f 6/59/13 18/61/15 17/62/16 1/63/17 12/53/18 11/2/14
f 19/52/19 20/5/20 14/3/6 13/51/5
f 20/5/20 21/6/21 15/4/1 14/3/6
f 21/6/21 22/47/22 16/48/2 15/4/1
f 24/55/23 25/7/24 20/5/20 19/52/19
f 25/7/24 11/2/14 21/6/21 20/5/20
f 11/2/14 12/53/18 23/54/25 22/47/22 21/6/21
f 9/60/12 10/1/11 25/7/24 24/55/23
f 10/1/11 11/2/14 25/7/24
s 4
f 60/22/26 37/9/27 39/10/28 59/21/29
s 5
f 62/24/30 42/11/31 36/8/32 61/23/33
s 6
f 61/23/34 36/8/35 82/39/36 83/40/37
s 7
f 80/37/38 33/82/39 43/76/40 79/36/41
s 8
f 32/94/42 84/41/43 85/42/44 41/96/45
s 5
f 53/17/46 54/18/47 43/86/48 33/82/49
s 6
f 81/38/50 53/17/51 33/82/52 80/37/53
s 4
f 51/15/54 52/16/55 27/83/56 38/87/57
f 50/14/58 51/15/54 38/87/57 44/89/59
f 59/21/29 39/10/28 45/12/60 58/20/61
s 8
f 41/96/45 85/42/44 86/43/62 47/104/63
s 5
f 63/25/64 48/13/65 42/11/31 62/24/30
f 43/86/48 54/18/47 55/19/66 49/88/67
s 7
f 79/36/41 43/76/40 49/77/68 78/35/69
s 4
f 57/93/70 50/14/58 44/89/59 29/92/71
f 65/105/72 58/20/61 45/12/60 34/101/73
s 8
f 47/104/63 86/43/62 87/109/74 30/111/75
s 5
f 64/102/76 35/100/77 48/13/65 63/25/64
f 49/88/67 55/19/66 56/90/78 31/91/79
s 7
f 78/35/69 49/77/68 31/84/80 77/78/81
s 4
f 45/12/60 39/10/28 51/15/54 50/14/58
f 39/10/28 37/9/27 52/16/55 51/15/54
s 6
f 82/39/36 36/8/35 53/17/51 81/38/50
s 5
f 36/8/32 42/11/31 54/18/47 53/17/46
f 55/19/66 54/18/47 42/11/31 48/13/65
f 56/90/78 55/19/66 48/13/65 35/100/77
s 4
f 34/101/73 45/12/60 50/14/58 57/93/70
f 40/97/82 59/21/29 58/20/61 46/106/83
f 26/98/84 60/22/26 59/21/29 40/97/82
s 6
f 32/94/85 61/23/34 83/40/37 84/41/86
s 5
f 41/95/87 62/24/30 61/23/33 32/94/88
f 47/103/89 63/25/64 62/24/30 41/95/87
f 30/110/90 64/102/76 63/25/64 47/103/89
s 4
f 46/106/83 58/20/61 65/105/72 28/112/91
s 7
f 44/80/92 67/26/93 66/79/94 29/85/95
f 38/81/96 68/27/97 67/26/93 44/80/92
f 27/83/98 69/28/99 68/27/97 38/81/96
s 6
f 52/16/100 70/29/101 69/28/102 27/83/103
f 37/9/104 71/30/105 70/29/101 52/16/100
f 72/31/106 71/30/105 37/9/104 60/22/107
f 73/32/108 72/31/106 60/22/107 26/98/109
s 8
f 74/33/110 73/32/111 26/98/112 40/99/113
f 75/34/114 74/33/110 40/99/113 46/107/115
f 76/108/116 75/34/114 46/107/115 28/113/117
s 7
f 67/26/93 78/35/69 77/78/81 66/79/94
f 68/27/97 79/36/41 78/35/69 67/26/93
f 69/28/99 80/37/38 79/36/41 68/27/97
s 6
f 70/29/101 81/38/50 80/37/53 69/28/102
f 71/30/105 82/39/36 81/38/50 70/29/101
f 83/40/37 82/39/36 71/30/105 72/31/106
f 84/41/86 83/40/37 72/31/106 73/32/108
s 8
f 85/42/44 84/41/43 73/32/111 74/33/110
f 86/43/62 85/42/44 74/33/110 75/34/114
f 87/109/74 86/43/62 75/34/114 76/108/116
s 11
f 98/45/118 100/46/119 99/69/120 91/70/121 92/71/122
f 97/72/123 98/45/118 92/71/122 89/75/124
f 88/74/125 93/67/126 95/44/127 94/73/128
f 93/67/126 90/68/129 96/65/130 95/44/127
f 94/73/128 95/44/127 98/45/118 97/72/123
f 100/46/119 101/66/131 99/69/120
f 95/44/127 96/65/130 101/66/132 100/46/119 98/45/118
